<?xml version="1.0" encoding="UTF-8" standalone="no"?><!DOCTYPE svg PUBLIC "-//W3C//DTD SVG 1.1//EN" "http://www.w3.org/Graphics/SVG/1.1/DTD/svg11.dtd"><svg width="100%" height="100%" viewBox="0 0 150 150" version="1.1" xmlns="http://www.w3.org/2000/svg" xmlns:xlink="http://www.w3.org/1999/xlink" xml:space="preserve" xmlns:serif="http://www.serif.com/" style="fill-rule:evenodd;clip-rule:evenodd;stroke-linejoin:round;stroke-miterlimit:2;"><path d="M47.501,53.432l18.219,-0l-0,-18.22l-18.219,0l-0,18.22Zm9.081,-29.685l18.219,-0l0,-18.22l-18.219,0l-0,18.22Zm-27.301,47.847l18.22,0l-0,-18.219l-18.22,-0l-0,18.219Zm18.22,36.496l18.219,0l-0,-18.219l-18.219,-0l-0,18.219Zm-18.22,18.106l18.22,0l-0,-18.219l-18.22,-0l-0,18.219Zm-0,-18.163l18.22,0l-0,-18.219l-18.22,-0l-0,18.219Zm-0,36.44l18.22,-0l-0,-18.22l-18.22,-0l-0,18.22Zm-18.163,-91.041l18.22,-0l-0,-18.22l-18.22,0l0,18.22Zm54.602,-0l18.22,-0l-0,-18.22l-18.22,0l-0,18.22Zm-0,18.162l18.22,0l-0,-18.219l-18.22,-0l-0,18.219Zm-0,18.22l18.22,-0l-0,-18.22l-18.22,0l-0,18.22Zm-0,18.219l18.22,0l-0,-18.219l-18.22,-0l-0,18.219Zm18.163,0l18.219,0l0,-18.219l-18.219,-0l-0,18.219Zm-0,18.163l18.219,0l0,-18.219l-18.219,-0l-0,18.219Zm17.481,0l18.22,0l-0,-18.219l-18.22,-0l0,18.219Zm18.22,0l18.22,0l-0,-18.219l-18.22,-0l-0,18.219Zm-35.701,-72.764l18.219,-0l0,-18.22l-18.219,0l-0,18.22Zm18.617,18.162l18.219,0l0,-18.219l-18.219,-0l-0,18.219Zm18.162,18.22l18.22,-0l-0,-18.22l-18.22,0l0,18.22Z" style="fill:url(#_Linear1);fill-rule:nonzero;"/><defs><linearGradient id="_Linear1" x1="0" y1="0" x2="1" y2="0" gradientUnits="userSpaceOnUse" gradientTransform="matrix(127.764,0,0,127.764,11.1182,74.9999)"><stop offset="0" style="stop-color:#00c5ff;stop-opacity:1"/><stop offset="0.54" style="stop-color:#153bff;stop-opacity:1"/><stop offset="0.98" style="stop-color:#cab7fc;stop-opacity:1"/><stop offset="1" style="stop-color:#cab7fc;stop-opacity:1"/></linearGradient></defs></svg>