<svg width="32" height="32" viewBox="0 0 32 32" fill="none" xmlns="http://www.w3.org/2000/svg">
<path d="M31.1874 19.7479C29.1181 28.0478 20.7113 33.0983 12.4105 31.029C4.11343 28.9596 -0.93741 20.5528 1.13232 12.2537C3.2008 3.95284 11.6068 -1.09884 19.9051 0.970474C28.2055 3.03979 33.2559 11.4475 31.1866 19.7479H31.1874Z" fill="#F7931A"/>
<path d="M22.9905 13.7934C23.2985 11.7321 21.7291 10.6238 19.5828 9.8845L20.2792 7.09189L18.5788 6.66819L17.901 9.38716C17.4546 9.27566 16.9955 9.17088 16.5394 9.06654L17.2219 6.32947L15.5228 5.90576L14.8261 8.69753C14.4562 8.61337 14.0931 8.53006 13.7405 8.44254L13.7426 8.43371L11.3985 7.84843L10.9462 9.66402C10.9462 9.66402 12.2072 9.95308 12.1807 9.97076C12.8691 10.1424 12.9941 10.5981 12.9726 10.9595L12.1774 14.1531L11.0653 18.6099C10.9811 18.819 10.7674 19.1329 10.2864 19.0138C10.3033 19.0386 9.05108 18.7054 9.05108 18.7054L8.20703 20.6518L10.4194 21.2035C10.8309 21.3065 11.234 21.4147 11.6308 21.5161L10.9273 24.3411L12.625 24.7648L13.3222 21.9705C13.7855 22.0963 14.2357 22.2124 14.6763 22.3218L13.982 25.1031L15.6819 25.5268L16.3854 22.7077C19.284 23.2564 21.464 23.035 22.3804 20.4137C23.1197 18.3027 22.3443 17.085 20.819 16.2906C21.9298 16.0335 22.7663 15.3031 22.9893 13.7938L22.9905 13.7934ZM19.1065 19.2397C18.5805 21.3507 15.0272 20.21 13.8743 19.9235L14.8075 16.1816C15.96 16.4694 19.6543 17.0387 19.1069 19.2402L19.1065 19.2397ZM19.6316 13.7631C19.1523 15.6835 16.194 14.7077 15.2342 14.4687L16.0804 11.0748C17.0405 11.3134 20.1315 11.7598 19.6316 13.7631Z" fill="white"/>
</svg>
