<svg width="44" height="44" viewBox="0 0 44 44" fill="none" xmlns="http://www.w3.org/2000/svg">
<path d="M42.2812 18.425C40.6312 8.73125 32.175 1.375 22 1.375C11.825 1.375 3.36875 8.73125 1.71875 18.425L22 8.25L42.2812 18.425ZM1.71875 25.575C3.36875 35.2687 11.825 42.625 22 42.625C32.175 42.625 40.6312 35.2687 42.2812 25.575L22 35.75L1.71875 25.575Z" fill="#699635"/>
<path d="M22 8.25L1.71875 18.425C1.5125 19.5937 1.375 20.7625 1.375 22C1.375 23.2375 1.5125 24.4062 1.71875 25.575L22 35.75L42.2812 25.575C42.4875 24.4062 42.625 23.2375 42.625 22C42.625 20.7625 42.4875 19.5937 42.2812 18.425L22 8.25Z" fill="#FFE62E"/>
<path d="M17.875 19.5249C15.675 19.5249 13.6125 20.0062 11.7563 20.8312C11.6875 21.2437 11.6875 21.5874 11.6875 21.9999C11.6875 27.7062 16.2937 32.3124 22 32.3124C25.85 32.3124 29.2187 30.1812 31.0062 27.0874C28.4625 22.6187 23.5125 19.5249 17.875 19.5249Z" fill="#428BC1"/>
<path d="M32.175 23.65C32.2437 23.1 32.3125 22.55 32.3125 22C32.3125 16.2937 27.7063 11.6875 22 11.6875C17.9437 11.6875 14.4375 14.025 12.7188 17.4625C14.3688 16.9812 16.0875 16.7062 17.875 16.7062C23.7188 16.7062 28.875 19.4563 32.175 23.65Z" fill="#428BC1"/>
<path d="M17.8751 16.7061C16.0876 16.7061 14.3688 16.9811 12.7188 17.4623C12.2376 18.4936 11.8938 19.5936 11.7563 20.8311C13.6126 20.0061 15.6751 19.5248 17.8751 19.5248C23.5126 19.5248 28.4626 22.5498 31.0063 27.0186C31.6251 25.9873 31.9688 24.8186 32.1751 23.6498C28.8751 19.4561 23.7188 16.7061 17.8751 16.7061Z" fill="white"/>
<path d="M15.125 22.6875C15.5047 22.6875 15.8125 22.3797 15.8125 22C15.8125 21.6203 15.5047 21.3125 15.125 21.3125C14.7453 21.3125 14.4375 21.6203 14.4375 22C14.4375 22.3797 14.7453 22.6875 15.125 22.6875Z" fill="white"/>
<path d="M17.875 26.8125C18.2547 26.8125 18.5625 26.5047 18.5625 26.125C18.5625 25.7453 18.2547 25.4375 17.875 25.4375C17.4953 25.4375 17.1875 25.7453 17.1875 26.125C17.1875 26.5047 17.4953 26.8125 17.875 26.8125Z" fill="white"/>
<path d="M22 26.8125C22.3797 26.8125 22.6875 26.5047 22.6875 26.125C22.6875 25.7453 22.3797 25.4375 22 25.4375C21.6203 25.4375 21.3125 25.7453 21.3125 26.125C21.3125 26.5047 21.6203 26.8125 22 26.8125Z" fill="white"/>
<path d="M22 29.5625C22.3797 29.5625 22.6875 29.2547 22.6875 28.875C22.6875 28.4953 22.3797 28.1875 22 28.1875C21.6203 28.1875 21.3125 28.4953 21.3125 28.875C21.3125 29.2547 21.6203 29.5625 22 29.5625Z" fill="white"/>
<path d="M27.5 26.8125C27.8797 26.8125 28.1875 26.5047 28.1875 26.125C28.1875 25.7453 27.8797 25.4375 27.5 25.4375C27.1203 25.4375 26.8125 25.7453 26.8125 26.125C26.8125 26.5047 27.1203 26.8125 27.5 26.8125Z" fill="white"/>
<path d="M27.5 29.5625C27.8797 29.5625 28.1875 29.2547 28.1875 28.875C28.1875 28.4953 27.8797 28.1875 27.5 28.1875C27.1203 28.1875 26.8125 28.4953 26.8125 28.875C26.8125 29.2547 27.1203 29.5625 27.5 29.5625Z" fill="white"/>
<path d="M24.75 28.1875C25.1297 28.1875 25.4375 27.8797 25.4375 27.5C25.4375 27.1203 25.1297 26.8125 24.75 26.8125C24.3703 26.8125 24.0625 27.1203 24.0625 27.5C24.0625 27.8797 24.3703 28.1875 24.75 28.1875Z" fill="white"/>
<path d="M15.125 25.4375C15.5047 25.4375 15.8125 25.1297 15.8125 24.75C15.8125 24.3703 15.5047 24.0625 15.125 24.0625C14.7453 24.0625 14.4375 24.3703 14.4375 24.75C14.4375 25.1297 14.7453 25.4375 15.125 25.4375Z" fill="white"/>
</svg>
