<svg width="45" height="44" viewBox="0 0 45 44" fill="none" xmlns="http://www.w3.org/2000/svg">
<path d="M33.5 4.5375C30.3375 2.54375 26.5562 1.375 22.5 1.375C18.4437 1.375 14.6625 2.54375 11.5 4.5375V39.3937C14.6625 41.3875 18.4437 42.5563 22.5 42.5563C26.5562 42.5563 30.3375 41.3875 33.5 39.3937V4.5375Z" fill="#F9F9F9"/>
<path d="M33.5 4.5376V39.3938C39.275 35.8188 43.125 29.2188 43.125 21.9313C43.125 14.6438 39.275 8.18135 33.5 4.5376ZM11.5 4.5376C5.725 8.18135 1.875 14.7813 1.875 22.0001C1.875 29.2188 5.725 35.8188 11.5 39.4626V4.5376ZM29.9938 21.7251C29.7188 21.5876 29.65 21.3126 29.7188 21.1751L30.4062 18.7001L28 19.1813C27.9312 19.1813 27.6563 19.1813 27.5875 18.7001L27.3812 17.8751L25.7313 19.8001C25.7313 19.8001 24.6312 20.9688 24.975 19.1813L25.6625 15.4001L24.3563 16.0876C24.2875 16.0876 24.0125 16.1563 23.6688 15.4688L22.5 13.0626L21.2625 15.3313C20.9188 16.0188 20.6438 15.9501 20.575 15.9501L19.2687 15.2626L19.9562 19.0438C20.3 20.8313 19.2 19.6626 19.2 19.6626L17.55 17.7376L17.3438 18.5626C17.2063 19.0438 17 19.0438 16.9312 19.0438L14.525 18.5626L15.2125 21.0376C15.2125 21.2438 15.2125 21.4501 14.9375 21.5876L14.25 22.0001C14.25 22.0001 17 24.2001 17.8937 24.9563C18.1 25.0938 18.5125 25.5063 18.375 25.9876L18.0312 26.9501L21.8125 26.4001C22.0187 26.4001 22.4312 26.4001 22.3625 27.0188L22.1562 30.9376H22.8438L22.6375 27.0188C22.6375 26.4001 23.05 26.4001 23.1875 26.4001L26.9688 26.9501L26.625 25.9876C26.4875 25.5063 26.9 25.0938 27.1063 24.9563C28 24.2001 30.75 22.0001 30.75 22.0001L29.9938 21.7251Z" fill="#ED4C5C"/>
</svg>
