<svg width="52" height="52" viewBox="0 0 52 52" fill="none" xmlns="http://www.w3.org/2000/svg">
<path d="M32.5002 36.8335C32.0716 36.8335 31.6527 36.9606 31.2964 37.1986C30.9401 37.4367 30.6624 37.7751 30.4984 38.171C30.3344 38.5669 30.2915 39.0026 30.3751 39.4229C30.4587 39.8432 30.6651 40.2292 30.9681 40.5322C31.2711 40.8352 31.6572 41.0416 32.0775 41.1252C32.4978 41.2088 32.9334 41.1659 33.3293 41.0019C33.7252 40.8379 34.0636 40.5602 34.3017 40.2039C34.5398 39.8476 34.6668 39.4287 34.6668 39.0002C34.6668 38.4255 34.4386 37.8744 34.0322 37.4681C33.6259 37.0618 33.0748 36.8335 32.5002 36.8335ZM19.5002 36.8335H13.0002C12.4255 36.8335 11.8744 37.0618 11.4681 37.4681C11.0618 37.8744 10.8335 38.4255 10.8335 39.0002C10.8335 39.5748 11.0618 40.1259 11.4681 40.5322C11.8744 40.9386 12.4255 41.1668 13.0002 41.1668H19.5002C20.0748 41.1668 20.6259 40.9386 21.0322 40.5322C21.4386 40.1259 21.6668 39.5748 21.6668 39.0002C21.6668 38.4255 21.4386 37.8744 21.0322 37.4681C20.6259 37.0618 20.0748 36.8335 19.5002 36.8335ZM39.0002 36.8335C38.5716 36.8335 38.1527 36.9606 37.7964 37.1986C37.4401 37.4367 37.1624 37.7751 36.9984 38.171C36.8344 38.5669 36.7915 39.0026 36.8751 39.4229C36.9587 39.8432 37.1651 40.2292 37.4681 40.5322C37.7711 40.8352 38.1572 41.0416 38.5775 41.1252C38.9978 41.2088 39.4334 41.1659 39.8293 41.0019C40.2252 40.8379 40.5636 40.5602 40.8017 40.2039C41.0398 39.8476 41.1668 39.4287 41.1668 39.0002C41.1668 38.4255 40.9386 37.8744 40.5322 37.4681C40.1259 37.0618 39.5748 36.8335 39.0002 36.8335ZM32.5002 23.8335C32.0716 23.8335 31.6527 23.9606 31.2964 24.1986C30.9401 24.4367 30.6624 24.7751 30.4984 25.171C30.3344 25.5669 30.2915 26.0026 30.3751 26.4229C30.4587 26.8431 30.6651 27.2292 30.9681 27.5322C31.2711 27.8352 31.6572 28.0416 32.0775 28.1252C32.4978 28.2088 32.9334 28.1659 33.3293 28.0019C33.7252 27.8379 34.0636 27.5602 34.3017 27.2039C34.5398 26.8476 34.6668 26.4287 34.6668 26.0002C34.6668 25.4255 34.4386 24.8744 34.0322 24.4681C33.6259 24.0618 33.0748 23.8335 32.5002 23.8335ZM19.5002 23.8335H13.0002C12.4255 23.8335 11.8744 24.0618 11.4681 24.4681C11.0618 24.8744 10.8335 25.4255 10.8335 26.0002C10.8335 26.5748 11.0618 27.1259 11.4681 27.5322C11.8744 27.9386 12.4255 28.1668 13.0002 28.1668H19.5002C20.0748 28.1668 20.6259 27.9386 21.0322 27.5322C21.4386 27.1259 21.6668 26.5748 21.6668 26.0002C21.6668 25.4255 21.4386 24.8744 21.0322 24.4681C20.6259 24.0618 20.0748 23.8335 19.5002 23.8335ZM39.0002 10.8335C38.5716 10.8335 38.1527 10.9606 37.7964 11.1986C37.4401 11.4367 37.1624 11.7751 36.9984 12.171C36.8344 12.5669 36.7915 13.0026 36.8751 13.4229C36.9587 13.8432 37.1651 14.2292 37.4681 14.5322C37.7711 14.8352 38.1572 15.0416 38.5775 15.1252C38.9978 15.2088 39.4334 15.1659 39.8293 15.0019C40.2252 14.8379 40.5636 14.5602 40.8017 14.2039C41.0398 13.8476 41.1668 13.4287 41.1668 13.0002C41.1668 12.4255 40.9386 11.8744 40.5322 11.4681C40.1259 11.0618 39.5748 10.8335 39.0002 10.8335ZM39.0002 23.8335C38.5716 23.8335 38.1527 23.9606 37.7964 24.1986C37.4401 24.4367 37.1624 24.7751 36.9984 25.171C36.8344 25.5669 36.7915 26.0026 36.8751 26.4229C36.9587 26.8431 37.1651 27.2292 37.4681 27.5322C37.7711 27.8352 38.1572 28.0416 38.5775 28.1252C38.9978 28.2088 39.4334 28.1659 39.8293 28.0019C40.2252 27.8379 40.5636 27.5602 40.8017 27.2039C41.0398 26.8476 41.1668 26.4287 41.1668 26.0002C41.1668 25.4255 40.9386 24.8744 40.5322 24.4681C40.1259 24.0618 39.5748 23.8335 39.0002 23.8335ZM47.6668 10.8335C47.6668 9.10959 46.982 7.45629 45.763 6.2373C44.544 5.01832 42.8907 4.3335 41.1668 4.3335H10.8335C9.10959 4.3335 7.45629 5.01832 6.2373 6.2373C5.01832 7.45629 4.3335 9.10959 4.3335 10.8335V15.1668C4.34305 16.7703 4.94495 18.3136 6.0235 19.5002C4.94495 20.6867 4.34305 22.23 4.3335 23.8335V28.1668C4.34305 29.7703 4.94495 31.3136 6.0235 32.5002C4.94495 33.6867 4.34305 35.23 4.3335 36.8335V41.1668C4.3335 42.8907 5.01832 44.544 6.2373 45.763C7.45629 46.982 9.10959 47.6668 10.8335 47.6668H41.1668C42.8907 47.6668 44.544 46.982 45.763 45.763C46.982 44.544 47.6668 42.8907 47.6668 41.1668V36.8335C47.6573 35.23 47.0554 33.6867 45.9768 32.5002C47.0554 31.3136 47.6573 29.7703 47.6668 28.1668V23.8335C47.6573 22.23 47.0554 20.6867 45.9768 19.5002C47.0554 18.3136 47.6573 16.7703 47.6668 15.1668V10.8335ZM43.3335 41.1668C43.3335 41.7415 43.1052 42.2926 42.6989 42.6989C42.2926 43.1052 41.7415 43.3335 41.1668 43.3335H10.8335C10.2589 43.3335 9.70776 43.1052 9.30143 42.6989C8.8951 42.2926 8.66683 41.7415 8.66683 41.1668V36.8335C8.66683 36.2589 8.8951 35.7078 9.30143 35.3014C9.70776 34.8951 10.2589 34.6668 10.8335 34.6668H41.1668C41.7415 34.6668 42.2926 34.8951 42.6989 35.3014C43.1052 35.7078 43.3335 36.2589 43.3335 36.8335V41.1668ZM43.3335 28.1668C43.3335 28.7415 43.1052 29.2926 42.6989 29.6989C42.2926 30.1052 41.7415 30.3335 41.1668 30.3335H10.8335C10.2589 30.3335 9.70776 30.1052 9.30143 29.6989C8.8951 29.2926 8.66683 28.7415 8.66683 28.1668V23.8335C8.66683 23.2589 8.8951 22.7078 9.30143 22.3014C9.70776 21.8951 10.2589 21.6668 10.8335 21.6668H41.1668C41.7415 21.6668 42.2926 21.8951 42.6989 22.3014C43.1052 22.7078 43.3335 23.2589 43.3335 23.8335V28.1668ZM43.3335 15.1668C43.3335 15.7415 43.1052 16.2926 42.6989 16.6989C42.2926 17.1052 41.7415 17.3335 41.1668 17.3335H10.8335C10.2589 17.3335 9.70776 17.1052 9.30143 16.6989C8.8951 16.2926 8.66683 15.7415 8.66683 15.1668V10.8335C8.66683 10.2589 8.8951 9.70776 9.30143 9.30143C9.70776 8.8951 10.2589 8.66683 10.8335 8.66683H41.1668C41.7415 8.66683 42.2926 8.8951 42.6989 9.30143C43.1052 9.70776 43.3335 10.2589 43.3335 10.8335V15.1668ZM32.5002 10.8335C32.0716 10.8335 31.6527 10.9606 31.2964 11.1986C30.9401 11.4367 30.6624 11.7751 30.4984 12.171C30.3344 12.5669 30.2915 13.0026 30.3751 13.4229C30.4587 13.8432 30.6651 14.2292 30.9681 14.5322C31.2711 14.8352 31.6572 15.0416 32.0775 15.1252C32.4978 15.2088 32.9334 15.1659 33.3293 15.0019C33.7252 14.8379 34.0636 14.5602 34.3017 14.2039C34.5398 13.8476 34.6668 13.4287 34.6668 13.0002C34.6668 12.4255 34.4386 11.8744 34.0322 11.4681C33.6259 11.0618 33.0748 10.8335 32.5002 10.8335ZM19.5002 10.8335H13.0002C12.4255 10.8335 11.8744 11.0618 11.4681 11.4681C11.0618 11.8744 10.8335 12.4255 10.8335 13.0002C10.8335 13.5748 11.0618 14.1259 11.4681 14.5322C11.8744 14.9386 12.4255 15.1668 13.0002 15.1668H19.5002C20.0748 15.1668 20.6259 14.9386 21.0322 14.5322C21.4386 14.1259 21.6668 13.5748 21.6668 13.0002C21.6668 12.4255 21.4386 11.8744 21.0322 11.4681C20.6259 11.0618 20.0748 10.8335 19.5002 10.8335Z" fill="url(#paint0_linear_2308_8786)"/>
<defs>
<linearGradient id="paint0_linear_2308_8786" x1="4.3335" y1="25.9915" x2="47.6668" y2="25.9915" gradientUnits="userSpaceOnUse">
<stop stop-color="#00C5FF"/>
<stop offset="0.54" stop-color="#153BFF"/>
<stop offset="0.98" stop-color="#CAB7FC"/>
</linearGradient>
</defs>
</svg>
