<svg width="52" height="52" viewBox="0 0 52 52" fill="none" xmlns="http://www.w3.org/2000/svg">
<path d="M39.0001 2.6001C38.3105 2.6001 37.6492 2.87403 37.1616 3.36162C36.674 3.84921 36.4001 4.51053 36.4001 5.2001V46.8001C36.4001 47.4897 36.674 48.151 37.1616 48.6386C37.6492 49.1262 38.3105 49.4001 39.0001 49.4001H46.8001C47.4897 49.4001 48.151 49.1262 48.6386 48.6386C49.1262 48.151 49.4001 47.4897 49.4001 46.8001V5.2001C49.4001 4.51053 49.1262 3.84921 48.6386 3.36162C48.151 2.87403 47.4897 2.6001 46.8001 2.6001H39.0001ZM22.1001 15.6001C21.4105 15.6001 20.7492 15.874 20.2616 16.3616C19.774 16.8492 19.5001 17.5105 19.5001 18.2001V46.8001C19.5001 47.4897 19.774 48.151 20.2616 48.6386C20.7492 49.1262 21.4105 49.4001 22.1001 49.4001H29.9001C30.5897 49.4001 31.251 49.1262 31.7386 48.6386C32.2262 48.151 32.5001 47.4897 32.5001 46.8001V18.2001C32.5001 17.5105 32.2262 16.8492 31.7386 16.3616C31.251 15.874 30.5897 15.6001 29.9001 15.6001H22.1001ZM5.2001 28.6001C4.51053 28.6001 3.84921 28.874 3.36162 29.3616C2.87403 29.8492 2.6001 30.5105 2.6001 31.2001V46.8001C2.6001 47.4897 2.87403 48.151 3.36162 48.6386C3.84921 49.1262 4.51053 49.4001 5.2001 49.4001H13.0001C13.6897 49.4001 14.351 49.1262 14.8386 48.6386C15.3262 48.151 15.6001 47.4897 15.6001 46.8001V31.2001C15.6001 30.5105 15.3262 29.8492 14.8386 29.3616C14.351 28.874 13.6897 28.6001 13.0001 28.6001H5.2001Z" fill="url(#paint0_linear_2308_8770)"/>
<defs>
<linearGradient id="paint0_linear_2308_8770" x1="2.6001" y1="25.9908" x2="49.4001" y2="25.9908" gradientUnits="userSpaceOnUse">
<stop stop-color="#00C5FF"/>
<stop offset="0.54" stop-color="#153BFF"/>
<stop offset="0.98" stop-color="#CAB7FC"/>
</linearGradient>
</defs>
</svg>
