<svg width="45" height="44" viewBox="0 0 45 44" fill="none" xmlns="http://www.w3.org/2000/svg">
<path d="M2.05615 22.0002C2.05615 31.0064 7.83115 38.6377 15.8062 41.4564V2.54395C7.83115 5.3627 2.05615 12.9939 2.05615 22.0002Z" fill="#428BC1"/>
<path d="M43.3062 22.0002C43.3062 12.9939 37.5999 5.3627 29.5562 2.54395V41.4564C37.5999 38.6377 43.3062 31.0064 43.3062 22.0002Z" fill="#ED4C5C"/>
<path d="M15.8062 41.4562C17.9374 42.2125 20.2749 42.625 22.6812 42.625C25.0874 42.625 27.4249 42.2125 29.5562 41.4562V2.54375C27.4249 1.7875 25.1562 1.375 22.6812 1.375C20.2062 1.375 17.9374 1.7875 15.8062 2.54375V41.4562Z" fill="white"/>
</svg>
