<svg width="45" height="44" viewBox="0 0 45 44" fill="none" xmlns="http://www.w3.org/2000/svg">
<path d="M22.1813 1.375C13.1751 1.375 5.54385 7.15 2.7251 15.125H41.6376C38.8188 7.15 31.1876 1.375 22.1813 1.375Z" fill="#3E4347"/>
<path d="M22.1813 42.625C31.1876 42.625 38.8188 36.9187 41.6376 28.875H2.7251C5.54385 36.9187 13.1751 42.625 22.1813 42.625Z" fill="#FFE62E"/>
<path d="M2.7249 15.125C1.96865 17.2562 1.55615 19.5938 1.55615 22C1.55615 24.4062 1.96865 26.7437 2.7249 28.875H41.6374C42.3937 26.7437 42.8062 24.4062 42.8062 22C42.8062 19.5938 42.3937 17.2562 41.6374 15.125H2.7249Z" fill="#ED4C5C"/>
</svg>
