<svg width="330" height="26" viewBox="0 0 330 26" fill="none" xmlns="http://www.w3.org/2000/svg">
<path d="M20.5571 1.11255V4.48755H12.2021V24.9176H8.82712V4.48755H0.307129V1.11255H20.5571Z" fill="white"/>
<path d="M25.717 7.87752H35.827C39.277 7.87752 41.002 9.58756 41.002 12.9776V24.9176H37.597V13.7125C37.597 12.0925 36.847 11.2826 35.362 11.2826H25.672V24.8726H22.282V1.08252H25.702V7.89254L25.717 7.87752Z" fill="white"/>
<path d="M60.2773 21.4826V24.8876H47.4223C44.0473 24.8576 42.3523 23.1926 42.3223 19.8776V12.9776C42.3223 9.5876 44.0173 7.89256 47.4223 7.87756H55.9423C59.3173 7.90756 61.0123 9.31759 61.0423 12.1226V17.4326H47.5873V13.9676H57.6223V12.5576C57.6223 11.7026 57.0673 11.2826 55.9423 11.2826H48.3073C46.5823 11.2826 45.7123 12.0926 45.7123 13.7126V18.9776C45.7123 20.6576 46.4773 21.4976 48.0073 21.4826H60.2623H60.2773Z" fill="white"/>
<path d="M76.8822 24.8575H73.4922V1.08252H88.7772C92.1522 1.11252 93.8622 3.00255 93.8772 6.73755V8.59754C93.8622 12.0025 92.1522 13.7125 88.7772 13.7125H78.7572V10.3976H88.1172C89.6922 10.3976 90.4872 9.73753 90.4872 8.40253V6.64756C90.4872 5.20756 89.7372 4.47254 88.2522 4.47254H76.8822V24.8425V24.8575Z" fill="white"/>
<path d="M94.627 24.8876V12.9176C94.627 9.58759 96.3369 7.90758 99.7269 7.89258H106.612V11.2526H100.267C98.7969 11.2526 98.0469 11.9726 98.0319 13.3826V24.9026H94.627V24.8876Z" fill="white"/>
<path d="M125.257 21.4826V24.8876H112.402C109.027 24.8576 107.332 23.1926 107.302 19.8776V12.9776C107.302 9.5876 108.997 7.89256 112.402 7.87756H120.922C124.297 7.90756 125.992 9.31759 126.022 12.1226V17.4326H112.567V13.9676H122.602V12.5576C122.602 11.7026 122.047 11.2826 120.922 11.2826H113.287C111.562 11.2826 110.692 12.0926 110.692 13.7126V18.9776C110.692 20.6576 111.457 21.4976 112.987 21.4826H125.242H125.257Z" fill="white"/>
<path d="M138.307 13.4126C138.292 12.0026 137.557 11.2826 136.132 11.2676H130.732V24.8726H127.327V7.87756H147.667C151.087 7.87756 152.812 9.5876 152.812 12.9776V24.8726H149.377V13.5026C149.347 12.0176 148.597 11.2826 147.097 11.2676H141.802V24.8426H138.292V13.4126H138.307Z" fill="white"/>
<path d="M157.927 4.57755H154.432V1.08252H157.927V4.57755ZM154.477 7.74253H157.912V24.8726H154.477V7.74253Z" fill="white"/>
<path d="M162.667 7.89258V19.3226C162.667 20.7476 163.417 21.4676 164.872 21.4826H174.052V7.89258H177.472V24.8876H164.362C160.972 24.8876 159.277 23.1776 159.262 19.7876V7.89258H162.667Z" fill="white"/>
<path d="M190.267 13.4126C190.237 12.0026 189.517 11.2826 188.092 11.2676H182.692V24.8726H179.287V7.87756H199.627C203.047 7.87756 204.772 9.5876 204.772 12.9776V24.8726H201.337V13.5026C201.307 12.0176 200.557 11.2826 199.057 11.2676H193.762V24.8426H190.252V13.4126H190.267Z" fill="white"/>
<path d="M222.177 24.97H218.772V1H234.192C237.597 1.03 239.322 2.93503 239.337 6.70003V8.57503C239.322 12.01 237.597 13.72 234.192 13.735H224.082V10.39H233.532C235.122 10.39 235.917 9.71503 235.917 8.38002V6.61003C235.917 5.15503 235.167 4.42005 233.667 4.42005H222.207V24.97H222.177Z" fill="white"/>
<path d="M246.073 0.984985H256.363C259.798 0.984985 261.523 2.67998 261.523 6.08498V19.84C261.523 23.275 259.783 25 256.363 25H246.073C242.638 25 240.927 23.29 240.927 19.855V6.12998C240.927 2.69498 242.638 0.984985 246.073 0.984985ZM244.363 6.86496V19.285C244.363 20.815 245.128 21.565 246.628 21.565H255.823C257.323 21.565 258.073 20.815 258.073 19.315V6.715C258.073 5.185 257.308 4.42 255.778 4.42H246.658C245.128 4.42 244.347 5.22996 244.347 6.86496H244.363Z" fill="white"/>
<path d="M269.338 13.765V10.39H278.863C280.453 10.45 281.248 9.74503 281.248 8.24503V6.61003C281.248 5.15503 280.513 4.42005 279.043 4.42005H267.523V24.97H264.103V1H279.523C282.928 1.03 284.638 2.755 284.653 6.16001V8.57503C284.653 12.04 282.943 13.78 279.523 13.78H274.333L285.103 24.985H280.498L269.338 13.765Z" fill="white"/>
<path d="M307.077 1.03003V4.42005H298.647V25.015H295.242V4.42005H286.647V1.03003H307.062H307.077Z" fill="white"/>
<path d="M309.103 25V21.565H323.668C325.243 21.565 326.023 20.77 326.023 19.21V15.97C326.023 14.47 325.243 13.72 323.668 13.72H314.008C310.573 13.72 308.863 11.98 308.863 8.51497V6.12998C308.878 2.70998 310.603 0.999985 314.023 0.984985H329.263V4.42H314.533C313.048 4.42 312.298 5.13999 312.298 6.56499V8.13997C312.298 9.63997 313.018 10.39 314.473 10.39H324.298C327.733 10.39 329.458 11.98 329.458 15.16V19.855C329.458 23.29 327.733 25 324.298 25.015H309.088L309.103 25Z" fill="white"/>
</svg>
