<svg width="45" height="44" viewBox="0 0 45 44" fill="none" xmlns="http://www.w3.org/2000/svg">
<path d="M22.3626 1.375C13.4251 1.375 5.79385 7.15 2.9751 15.125H41.8876C39.0001 7.15 31.3688 1.375 22.3626 1.375Z" fill="#F2B200"/>
<path d="M22.3626 42.625C31.3688 42.625 39.0001 36.9187 41.8188 28.875H2.9751C5.79385 36.9187 13.4251 42.625 22.3626 42.625Z" fill="#83BF4F"/>
<path d="M2.9749 15.125C2.21865 17.2562 1.80615 19.5938 1.80615 22C1.80615 24.4062 2.21865 26.7437 2.9749 28.875H41.8874C42.6437 26.7437 43.0562 24.4062 43.0562 22C43.0562 19.5938 42.6437 17.2562 41.8874 15.125H2.9749Z" fill="white"/>
<path d="M22.3623 27.5C25.3999 27.5 27.8623 25.0376 27.8623 22C27.8623 18.9624 25.3999 16.5 22.3623 16.5C19.3247 16.5 16.8623 18.9624 16.8623 22C16.8623 25.0376 19.3247 27.5 22.3623 27.5Z" fill="#428BC1"/>
<path d="M22.3623 26.8125C25.0202 26.8125 27.1748 24.6579 27.1748 22C27.1748 19.3421 25.0202 17.1875 22.3623 17.1875C19.7044 17.1875 17.5498 19.3421 17.5498 22C17.5498 24.6579 19.7044 26.8125 22.3623 26.8125Z" fill="white"/>
<path d="M20.5747 17.875C20.7646 17.875 20.9185 17.7211 20.9185 17.5312C20.9185 17.3414 20.7646 17.1875 20.5747 17.1875C20.3849 17.1875 20.231 17.3414 20.231 17.5312C20.231 17.7211 20.3849 17.875 20.5747 17.875Z" fill="#428BC1"/>
<path d="M19.4751 18.4937C19.6649 18.4937 19.8188 18.3398 19.8188 18.1499C19.8188 17.9601 19.6649 17.8062 19.4751 17.8062C19.2852 17.8062 19.1313 17.9601 19.1313 18.1499C19.1313 18.3398 19.2852 18.4937 19.4751 18.4937Z" fill="#428BC1"/>
<path d="M18.5811 19.3872C18.7709 19.3872 18.9248 19.2333 18.9248 19.0435C18.9248 18.8536 18.7709 18.6997 18.5811 18.6997C18.3912 18.6997 18.2373 18.8536 18.2373 19.0435C18.2373 19.2333 18.3912 19.3872 18.5811 19.3872Z" fill="#428BC1"/>
<path d="M17.9624 20.4873C18.1523 20.4873 18.3062 20.3334 18.3062 20.1436C18.3062 19.9537 18.1523 19.7998 17.9624 19.7998C17.7726 19.7998 17.6187 19.9537 17.6187 20.1436C17.6187 20.3334 17.7726 20.4873 17.9624 20.4873Z" fill="#428BC1"/>
<path d="M17.6187 21.7246C17.8085 21.7246 17.9624 21.5707 17.9624 21.3809C17.9624 21.191 17.8085 21.0371 17.6187 21.0371C17.4288 21.0371 17.2749 21.191 17.2749 21.3809C17.2749 21.5707 17.4288 21.7246 17.6187 21.7246Z" fill="#428BC1"/>
<path d="M17.6187 22.9624C17.8085 22.9624 17.9624 22.8085 17.9624 22.6187C17.9624 22.4288 17.8085 22.2749 17.6187 22.2749C17.4288 22.2749 17.2749 22.4288 17.2749 22.6187C17.2749 22.8085 17.4288 22.9624 17.6187 22.9624Z" fill="#428BC1"/>
<path d="M17.9624 24.1997C18.1523 24.1997 18.3062 24.0458 18.3062 23.856C18.3062 23.6661 18.1523 23.5122 17.9624 23.5122C17.7726 23.5122 17.6187 23.6661 17.6187 23.856C17.6187 24.0458 17.7726 24.1997 17.9624 24.1997Z" fill="#428BC1"/>
<path d="M18.5811 25.2998C18.7709 25.2998 18.9248 25.1459 18.9248 24.9561C18.9248 24.7662 18.7709 24.6123 18.5811 24.6123C18.3912 24.6123 18.2373 24.7662 18.2373 24.9561C18.2373 25.1459 18.3912 25.2998 18.5811 25.2998Z" fill="#428BC1"/>
<path d="M19.4751 26.1934C19.6649 26.1934 19.8188 26.0395 19.8188 25.8496C19.8188 25.6598 19.6649 25.5059 19.4751 25.5059C19.2852 25.5059 19.1313 25.6598 19.1313 25.8496C19.1313 26.0395 19.2852 26.1934 19.4751 26.1934Z" fill="#428BC1"/>
<path d="M20.5747 26.8125C20.7646 26.8125 20.9185 26.6586 20.9185 26.4688C20.9185 26.2789 20.7646 26.125 20.5747 26.125C20.3849 26.125 20.231 26.2789 20.231 26.4688C20.231 26.6586 20.3849 26.8125 20.5747 26.8125Z" fill="#428BC1"/>
<path d="M21.7437 27.0874C21.9335 27.0874 22.0874 26.9335 22.0874 26.7437C22.0874 26.5538 21.9335 26.3999 21.7437 26.3999C21.5538 26.3999 21.3999 26.5538 21.3999 26.7437C21.3999 26.9335 21.5538 27.0874 21.7437 27.0874Z" fill="#428BC1"/>
<path d="M22.7061 26.8124C22.7061 26.6062 22.8436 26.4687 22.9811 26.3999C23.1873 26.3999 23.3248 26.5374 23.3936 26.6749C23.3936 26.8812 23.2561 27.0187 23.1186 27.0874C22.8436 27.1562 22.7061 27.0187 22.7061 26.8124Z" fill="#428BC1"/>
<path d="M24.2188 26.8125C24.4086 26.8125 24.5625 26.6586 24.5625 26.4688C24.5625 26.2789 24.4086 26.125 24.2188 26.125C24.0289 26.125 23.875 26.2789 23.875 26.4688C23.875 26.6586 24.0289 26.8125 24.2188 26.8125Z" fill="#428BC1"/>
<path d="M25.3188 26.1934C25.5087 26.1934 25.6626 26.0395 25.6626 25.8496C25.6626 25.6598 25.5087 25.5059 25.3188 25.5059C25.129 25.5059 24.9751 25.6598 24.9751 25.8496C24.9751 26.0395 25.129 26.1934 25.3188 26.1934Z" fill="#428BC1"/>
<path d="M26.2124 25.2998C26.4023 25.2998 26.5562 25.1459 26.5562 24.9561C26.5562 24.7662 26.4023 24.6123 26.2124 24.6123C26.0226 24.6123 25.8687 24.7662 25.8687 24.9561C25.8687 25.1459 26.0226 25.2998 26.2124 25.2998Z" fill="#428BC1"/>
<path d="M26.8311 24.1997C27.0209 24.1997 27.1748 24.0458 27.1748 23.856C27.1748 23.6661 27.0209 23.5122 26.8311 23.5122C26.6412 23.5122 26.4873 23.6661 26.4873 23.856C26.4873 24.0458 26.6412 24.1997 26.8311 24.1997Z" fill="#428BC1"/>
<path d="M27.1748 22.9624C27.3647 22.9624 27.5186 22.8085 27.5186 22.6187C27.5186 22.4288 27.3647 22.2749 27.1748 22.2749C26.985 22.2749 26.8311 22.4288 26.8311 22.6187C26.8311 22.8085 26.985 22.9624 27.1748 22.9624Z" fill="#428BC1"/>
<path d="M27.1747 21.7246C26.9685 21.7246 26.831 21.5871 26.7622 21.4496C26.7622 21.2434 26.8997 21.1059 27.0372 21.0371C27.2435 21.0371 27.381 21.1746 27.4497 21.3121C27.5185 21.5184 27.381 21.6559 27.1747 21.7246Z" fill="#428BC1"/>
<path d="M26.8311 20.4873C27.0209 20.4873 27.1748 20.3334 27.1748 20.1436C27.1748 19.9537 27.0209 19.7998 26.8311 19.7998C26.6412 19.7998 26.4873 19.9537 26.4873 20.1436C26.4873 20.3334 26.6412 20.4873 26.8311 20.4873Z" fill="#428BC1"/>
<path d="M26.2124 19.3872C26.4023 19.3872 26.5562 19.2333 26.5562 19.0435C26.5562 18.8536 26.4023 18.6997 26.2124 18.6997C26.0226 18.6997 25.8687 18.8536 25.8687 19.0435C25.8687 19.2333 26.0226 19.3872 26.2124 19.3872Z" fill="#428BC1"/>
<path d="M25.3188 18.4937C25.5087 18.4937 25.6626 18.3398 25.6626 18.1499C25.6626 17.9601 25.5087 17.8062 25.3188 17.8062C25.129 17.8062 24.9751 17.9601 24.9751 18.1499C24.9751 18.3398 25.129 18.4937 25.3188 18.4937Z" fill="#428BC1"/>
<path d="M24.5624 17.6686C24.4937 17.8748 24.2874 17.9436 24.0812 17.8748C23.8749 17.8061 23.8062 17.5998 23.8749 17.3936C23.9437 17.1873 24.1499 17.1186 24.3562 17.1873C24.5624 17.3248 24.6312 17.5311 24.5624 17.6686ZM23.3249 17.2561C23.3249 17.4623 23.1187 17.5998 22.9124 17.5311C22.7062 17.5311 22.5687 17.3248 22.6374 17.1186C22.6374 16.9123 22.8437 16.7748 23.0499 16.8436C23.2562 16.9123 23.3937 17.1186 23.3249 17.2561ZM22.0874 17.1873C22.0874 17.3936 21.9499 17.5311 21.8124 17.5998C21.6062 17.5998 21.4687 17.4623 21.3999 17.3248C21.3999 17.1186 21.5374 16.9811 21.6749 16.9123C21.8812 16.8436 22.0874 16.9811 22.0874 17.1873Z" fill="#428BC1"/>
<path d="M22.3623 23.0312C22.9318 23.0312 23.3936 22.5695 23.3936 22C23.3936 21.4305 22.9318 20.9688 22.3623 20.9688C21.7928 20.9688 21.3311 21.4305 21.3311 22C21.3311 22.5695 21.7928 23.0312 22.3623 23.0312Z" fill="#428BC1"/>
<path d="M22.3625 17.1875L22.225 20.1437L22.3625 22L22.5687 20.1437L22.3625 17.1875ZM21.125 17.325L21.7437 20.2812L22.3625 22L22.0875 20.1437L21.125 17.325Z" fill="#428BC1"/>
<path d="M19.9562 17.8062L21.3312 20.4874L22.3624 21.9999L21.6062 20.2812L19.9562 17.8062ZM18.9937 18.5624L20.9874 20.8312L22.3624 21.9999L21.1937 20.5562L18.9937 18.5624Z" fill="#428BC1"/>
<path d="M18.2373 19.5938L20.7123 21.2437L22.3623 22L20.8498 20.9L18.2373 19.5938Z" fill="#428BC1"/>
<path d="M17.7561 20.7622L20.5748 21.656L22.3623 21.9997L20.6436 21.381L17.7561 20.7622ZM17.5498 21.9997L20.5748 22.1372L22.3623 21.9997L20.5748 21.8622L17.5498 21.9997Z" fill="#428BC1"/>
<path d="M17.7563 23.2375L20.6438 22.6188L22.3626 22L20.5751 22.3438L17.7563 23.2375ZM18.2376 24.4062L20.8501 23.1L22.3626 22L20.7126 22.7562L18.2376 24.4062Z" fill="#428BC1"/>
<path d="M18.9937 25.3688L21.1937 23.4437L22.3624 22L20.9874 23.1688L18.9937 25.3688ZM19.9562 26.1937L21.6062 23.65L22.3624 22L21.3312 23.5125L19.9562 26.1937Z" fill="#428BC1"/>
<path d="M21.125 26.675L22.0875 23.8563L22.3625 22L21.7437 23.7188L21.125 26.675ZM22.3625 26.8125L22.5687 23.8563L22.3625 22L22.225 23.8563L22.3625 26.8125ZM23.6 26.675L23.05 23.7188L22.3625 22L22.7062 23.8563L23.6 26.675Z" fill="#428BC1"/>
<path d="M24.7686 26.1937L23.4623 23.5125L22.3623 22L23.1873 23.7188L24.7686 26.1937ZM25.7998 25.3688L23.8061 23.1688L22.3623 22L23.5998 23.4437L25.7998 25.3688Z" fill="#428BC1"/>
<path d="M26.5561 24.406L24.0811 22.756L22.3623 21.9997L23.8748 23.0997L26.5561 24.406ZM27.0373 23.2372L24.2186 22.3435L22.3623 21.9997L24.1498 22.6185L27.0373 23.2372ZM27.1748 21.9997L24.2186 21.7935L22.3623 21.9997L24.2186 22.1372L27.1748 21.9997ZM27.0373 20.7622L24.1498 21.381L22.3623 21.9997L24.2186 21.656L27.0373 20.7622Z" fill="#428BC1"/>
<path d="M26.5561 19.5934L23.8748 20.8996L22.3623 21.9996L24.0811 21.2434L26.5561 19.5934ZM25.7998 18.6309L23.5998 20.5559L22.3623 21.9996L23.8061 20.8309L25.7998 18.6309Z" fill="#428BC1"/>
<path d="M24.7686 17.8062L23.1873 20.3499L22.3623 21.9999L23.4623 20.4874L24.7686 17.8062Z" fill="#428BC1"/>
<path d="M23.6686 17.3247L22.7061 20.1435L22.3623 21.9997L23.0498 20.281L23.6686 17.3247Z" fill="#428BC1"/>
</svg>
