<svg width="49" height="48" viewBox="0 0 49 48" fill="none" xmlns="http://www.w3.org/2000/svg">
<path d="M2.0249 23.9999C2.0249 33.8249 8.3249 42.1499 17.0249 45.2249V2.7749C8.3249 5.8499 2.0249 14.1749 2.0249 23.9999Z" fill="#75A843"/>
<path d="M47.0249 23.9999C47.0249 14.1749 40.7249 5.8499 32.0249 2.7749V45.2249C40.7999 42.1499 47.0249 33.8249 47.0249 23.9999Z" fill="#ED4C5C"/>
<path d="M17.0249 45.225C19.3499 46.05 21.8999 46.5 24.5249 46.5C27.1499 46.5 29.6999 46.05 32.0249 45.225V2.775C29.6999 1.95 27.1499 1.5 24.5249 1.5C21.8999 1.5 19.3499 1.95 17.0249 2.775V45.225Z" fill="white"/>
</svg>
