<svg width="52" height="52" viewBox="0 0 52 52" fill="none" xmlns="http://www.w3.org/2000/svg">
<path fill-rule="evenodd" clip-rule="evenodd" d="M15.1667 15.1666C15.1671 13.1168 15.749 11.1093 16.8448 9.37708C17.9407 7.64486 19.5054 6.25908 21.3574 5.38067C23.2094 4.50226 25.2725 4.16727 27.3073 4.41462C29.342 4.66197 31.2649 5.4815 32.8525 6.77802C34.44 8.07455 35.6272 9.79487 36.2761 11.7392C36.925 13.6835 37.009 15.772 36.5184 17.7621C36.0277 19.7523 34.9825 21.5624 33.5041 22.9822C32.0258 24.402 30.175 25.3733 28.1667 25.7832V36.8332C28.1667 37.4079 27.9384 37.959 27.5321 38.3653C27.1257 38.7716 26.5746 38.9999 26 38.9999C25.4254 38.9999 24.8743 38.7716 24.4679 38.3653C24.0616 37.959 23.8333 37.4079 23.8333 36.8332V25.7832C21.3864 25.2838 19.1871 23.9542 17.6078 22.0195C16.0285 20.0849 15.1662 17.664 15.1667 15.1666ZM20.5595 34.8832C20.6026 35.1647 20.5898 35.4518 20.5219 35.7283C20.4539 36.0048 20.3322 36.2651 20.1636 36.4945C19.9949 36.7239 19.7828 36.9178 19.5392 37.0652C19.2955 37.2125 19.0253 37.3104 18.7438 37.3532C15.9748 37.7757 13.7757 38.4127 12.3305 39.1191C11.6047 39.4744 11.1735 39.7972 10.9503 40.0334L10.9048 40.0832C10.9763 40.1677 11.0998 40.2912 11.3165 40.4494C11.9232 40.8979 12.9393 41.3919 14.3888 41.8447C17.264 42.7439 21.3698 43.3332 26 43.3332C30.6302 43.3332 34.736 42.7439 37.6112 41.8447C39.0628 41.3919 40.0768 40.8979 40.6835 40.4494C40.9002 40.2912 41.0237 40.1677 41.0952 40.0832L41.0497 40.0334C40.8265 39.7972 40.3953 39.4744 39.6695 39.1191C38.2243 38.4127 36.0252 37.7757 33.2562 37.3532C32.9716 37.3142 32.6977 37.219 32.4502 37.0731C32.2028 36.9272 31.9869 36.7336 31.815 36.5035C31.6431 36.2734 31.5186 36.0115 31.4489 35.7328C31.3791 35.4542 31.3654 35.1645 31.4087 34.8806C31.4519 34.5966 31.5512 34.3241 31.7007 34.0789C31.8502 33.8336 32.047 33.6206 32.2796 33.4521C32.5122 33.2836 32.7759 33.163 33.0556 33.0973C33.3352 33.0317 33.6251 33.0223 33.9083 33.0697C36.9157 33.5247 39.5893 34.2549 41.5762 35.2277C42.5663 35.7131 43.4915 36.3111 44.1935 37.0521C44.9085 37.8039 45.5 38.8287 45.5 40.0832C45.5 41.8404 44.3647 43.1166 43.2597 43.9334C42.1113 44.7827 40.5882 45.4544 38.9047 45.9809C35.503 47.0426 30.9443 47.6666 26 47.6666C21.0557 47.6666 16.4948 47.0426 13.0975 45.9809C11.4118 45.4544 9.89083 44.7827 8.7425 43.9334C7.63533 43.1166 6.5 41.8404 6.5 40.0832C6.5 38.8266 7.0915 37.8039 7.8065 37.0499C8.51067 36.3089 9.43367 35.7131 10.4238 35.2299C12.4107 34.2549 15.0865 33.5269 18.0895 33.0697C18.3709 33.0266 18.6581 33.0394 18.9345 33.1074C19.211 33.1753 19.4714 33.2971 19.7008 33.4657C19.9302 33.6343 20.1241 33.8465 20.2714 34.0901C20.4188 34.3337 20.5167 34.6018 20.5595 34.8832Z" fill="url(#paint0_linear_2308_8735)"/>
<defs>
<linearGradient id="paint0_linear_2308_8735" x1="6.5" y1="25.9924" x2="45.5" y2="25.9924" gradientUnits="userSpaceOnUse">
<stop stop-color="#00C5FF"/>
<stop offset="0.54" stop-color="#153BFF"/>
<stop offset="0.98" stop-color="#CAB7FC"/>
</linearGradient>
</defs>
</svg>
