<svg width="392" height="52" viewBox="0 0 392 52" fill="none" xmlns="http://www.w3.org/2000/svg">
<path d="M14.1439 17.9367H20.9553V11.1252H14.1439V17.9367ZM17.539 6.83888H24.3504V0.0274658H17.539V6.83888ZM7.33244 24.7268H14.1439V17.9154H7.33244V24.7268ZM14.1439 38.3709H20.9553V31.5595H14.1439V38.3709ZM7.33244 45.1399H14.1439V38.3285H7.33244V45.1399ZM7.33244 38.3497H14.1439V31.5382H7.33244V38.3497ZM7.33244 51.9726H14.1439V45.1611H7.33244V51.9726ZM0.542236 17.9367H7.35365V11.1252H0.542236V17.9367ZM20.9553 17.9367H27.7668V11.1252H20.9553V17.9367ZM20.9553 24.7268H27.7668V17.9154H20.9553V24.7268ZM20.9553 31.5382H27.7668V24.7268H20.9553V31.5382ZM20.9553 38.3497H27.7668V31.5382H20.9553V38.3497ZM27.7455 38.3497H34.557V31.5382H27.7455V38.3497ZM27.7455 45.1399H34.557V38.3285H27.7455V45.1399ZM34.2811 45.1399H41.0925V38.3285H34.2811V45.1399ZM41.0925 45.1399H47.904V38.3285H41.0925V45.1399ZM27.7455 17.9367H34.557V11.1252H27.7455V17.9367ZM34.7055 24.7268H41.5169V17.9154H34.7055V24.7268ZM41.4957 31.5382H48.3071V24.7268H41.4957V31.5382Z" fill="url(#paint0_linear_2145_90)"/>
<path d="M82.5571 14.1125V17.4876H74.2021V37.9176H70.8271V17.4876H62.3071V14.1125H82.5571Z" fill="white"/>
<path d="M87.717 20.8775H97.827C101.277 20.8775 103.002 22.5876 103.002 25.9776V37.9176H99.597V26.7125C99.597 25.0925 98.847 24.2826 97.362 24.2826H87.672V37.8726H84.282V14.0825H87.702V20.8925L87.717 20.8775Z" fill="white"/>
<path d="M122.277 34.4826V37.8876H109.422C106.047 37.8576 104.352 36.1926 104.322 32.8776V25.9776C104.322 22.5876 106.017 20.8926 109.422 20.8776H117.942C121.317 20.9076 123.012 22.3176 123.042 25.1226V30.4326H109.587V26.9676H119.622V25.5576C119.622 24.7026 119.067 24.2826 117.942 24.2826H110.307C108.582 24.2826 107.712 25.0926 107.712 26.7126V31.9776C107.712 33.6576 108.477 34.4976 110.007 34.4826H122.262H122.277Z" fill="white"/>
<path d="M138.882 37.8575H135.492V14.0825H150.777C154.152 14.1125 155.862 16.0026 155.877 19.7376V21.5975C155.862 25.0025 154.152 26.7125 150.777 26.7125H140.757V23.3976H150.117C151.692 23.3976 152.487 22.7375 152.487 21.4025V19.6476C152.487 18.2076 151.737 17.4725 150.252 17.4725H138.882V37.8425V37.8575Z" fill="white"/>
<path d="M156.627 37.8876V25.9176C156.627 22.5876 158.337 20.9076 161.727 20.8926H168.612V24.2526H162.267C160.797 24.2526 160.047 24.9726 160.032 26.3826V37.9026H156.627V37.8876Z" fill="white"/>
<path d="M187.257 34.4826V37.8876H174.402C171.027 37.8576 169.332 36.1926 169.302 32.8776V25.9776C169.302 22.5876 170.997 20.8926 174.402 20.8776H182.922C186.297 20.9076 187.992 22.3176 188.022 25.1226V30.4326H174.567V26.9676H184.602V25.5576C184.602 24.7026 184.047 24.2826 182.922 24.2826H175.287C173.562 24.2826 172.692 25.0926 172.692 26.7126V31.9776C172.692 33.6576 173.457 34.4976 174.987 34.4826H187.242H187.257Z" fill="white"/>
<path d="M200.307 26.4126C200.292 25.0026 199.557 24.2826 198.132 24.2676H192.732V37.8726H189.327V20.8776H209.667C213.087 20.8776 214.812 22.5876 214.812 25.9776V37.8726H211.377V26.5026C211.347 25.0176 210.597 24.2826 209.097 24.2676H203.802V37.8426H200.292V26.4126H200.307Z" fill="white"/>
<path d="M219.927 17.5775H216.432V14.0825H219.927V17.5775ZM216.477 20.7425H219.912V37.8726H216.477V20.7425Z" fill="white"/>
<path d="M224.667 20.8926V32.3226C224.667 33.7476 225.417 34.4676 226.872 34.4826H236.052V20.8926H239.472V37.8876H226.362C222.972 37.8876 221.277 36.1776 221.262 32.7876V20.8926H224.667Z" fill="white"/>
<path d="M252.267 26.4126C252.237 25.0026 251.517 24.2826 250.092 24.2676H244.692V37.8726H241.287V20.8776H261.627C265.047 20.8776 266.772 22.5876 266.772 25.9776V37.8726H263.337V26.5026C263.307 25.0176 262.557 24.2826 261.057 24.2676H255.762V37.8426H252.252V26.4126H252.267Z" fill="white"/>
<path d="M284.177 37.97H280.772V14H296.192C299.597 14.03 301.322 15.935 301.337 19.7V21.575C301.322 25.01 299.597 26.72 296.192 26.735H286.082V23.39H295.532C297.122 23.39 297.917 22.715 297.917 21.38V19.61C297.917 18.155 297.167 17.42 295.667 17.42H284.207V37.97H284.177Z" fill="white"/>
<path d="M308.073 13.985H318.363C321.798 13.985 323.523 15.68 323.523 19.085V32.84C323.523 36.275 321.783 38 318.363 38H308.073C304.638 38 302.927 36.29 302.927 32.855V19.13C302.927 15.695 304.638 13.985 308.073 13.985ZM306.363 19.865V32.285C306.363 33.815 307.128 34.565 308.628 34.565H317.823C319.323 34.565 320.073 33.815 320.073 32.315V19.715C320.073 18.185 319.308 17.42 317.778 17.42H308.658C307.128 17.42 306.347 18.23 306.347 19.865H306.363Z" fill="white"/>
<path d="M331.338 26.765V23.39H340.863C342.453 23.45 343.248 22.745 343.248 21.245V19.61C343.248 18.155 342.513 17.42 341.043 17.42H329.523V37.97H326.103V14H341.523C344.928 14.03 346.638 15.755 346.653 19.16V21.575C346.653 25.04 344.943 26.78 341.523 26.78H336.333L347.103 37.985H342.498L331.338 26.765Z" fill="white"/>
<path d="M369.077 14.03V17.42H360.647V38.015H357.242V17.42H348.647V14.03H369.062H369.077Z" fill="white"/>
<path d="M371.103 38V34.565H385.668C387.243 34.565 388.023 33.77 388.023 32.21V28.97C388.023 27.47 387.243 26.72 385.668 26.72H376.008C372.573 26.72 370.863 24.98 370.863 21.515V19.13C370.878 15.71 372.603 14 376.023 13.985H391.263V17.42H376.533C375.048 17.42 374.298 18.14 374.298 19.565V21.14C374.298 22.64 375.018 23.39 376.473 23.39H386.298C389.733 23.39 391.458 24.98 391.458 28.16V32.855C391.458 36.29 389.733 38 386.298 38.015H371.088L371.103 38Z" fill="white"/>
<defs>
<linearGradient id="paint0_linear_2145_90" x1="0.542236" y1="26" x2="48.3071" y2="26" gradientUnits="userSpaceOnUse">
<stop stop-color="#00C5FF"/>
<stop offset="0.54" stop-color="#153BFF"/>
<stop offset="0.98" stop-color="#CAB7FC"/>
</linearGradient>
</defs>
</svg>
