<svg fill="none" viewBox="0 0 47.824 52.390977443609025" xmlns="http://www.w3.org/2000/svg" style="max-height: 500px" width="47.824" height="52.390977443609025"><defs><linearGradient gradientUnits="userSpaceOnUse" y2="23.5" x2="48.5" y1="23.5" x1="-0.5" id="Gradient-0"><stop stop-color="#00c5ff" offset="0"/><stop stop-color="#153bff" offset=".54"/><stop stop-color="#cab7fc" offset=".98"/></linearGradient><linearGradient gradientUnits="userSpaceOnUse" y2="29.81" x2="40.21" y1="29.71" x1=".53" id="Gradient-1"><stop stop-opacity="0" stop-color="#fff" offset="0"/><stop stop-color="#fff" offset=".51"/><stop stop-opacity="0" stop-color="#fff" offset="1"/></linearGradient><clipPath id="ClipPath-1"><path fill="#fff" d="M14.14 17.94h6.82v-6.81h-6.82v6.81Zm3.4-11.1h6.81v-6.81h-6.81v6.81Zm-10.21 17.89h6.81v-6.81h-6.81v6.81Zm6.81 13.64h6.82v-6.81h-6.82v6.81Zm-6.81 6.77h6.81v-6.81h-6.81v6.81Zm0-6.79h6.81v-6.81h-6.81v6.81Zm0 13.62h6.81v-6.81h-6.81v6.81Zm-6.79-34.03h6.81v-6.81h-6.81v6.81Zm20.42 0h6.81v-6.81h-6.81v6.81Zm0 6.79h6.81v-6.81h-6.81v6.81Zm0 6.81h6.81v-6.81h-6.81v6.81Zm0 6.81h6.81v-6.81h-6.81v6.81Zm6.79 0h6.81v-6.81h-6.81v6.81Zm0 6.79h6.81v-6.81h-6.81v6.81Zm6.53 0h6.81v-6.81h-6.81v6.81Zm6.81 0h6.81v-6.81h-6.81v6.81Zm-13.34-27.2h6.81v-6.81h-6.81v6.81Zm6.96 6.79h6.81v-6.81h-6.81v6.81Zm6.79 6.81h6.81v-6.81h-6.81v6.81Z"/></clipPath></defs><style>
@keyframes a0_t { 0% { transform: translate(-46.94px,13.31px) rotate(30deg) translate(-6px,-35px); } 33.333% { transform: translate(-46.94px,13.31px) rotate(30deg) translate(-6px,-35px); } 83.333% { transform: translate(72.68px,13.31px) rotate(30deg) translate(-6px,-35px); } 100% { transform: translate(72.68px,13.31px) rotate(30deg) translate(-6px,-35px); } }
@keyframes a1_do { 0% { stroke-dashoffset: 329.7px; } 33.333% { stroke-dashoffset: 329.7px; } 83.333% { stroke-dashoffset: -329.7px; } 100% { stroke-dashoffset: -329.7px; } }
</style><g clip-path="url(#ClipPath-1)"><rect fill="url(#Gradient-0)" height="52" width="47.9"/><rect style="animation: 3s linear infinite both a0_t;" transform="translate(-46.94,13.31) rotate(30) translate(-6,-35)" opacity=".8" fill="url(#Gradient-1)" height="85" width="40"/></g><g transform="translate(62.31,13.98)"><path fill="#fff" d="M20.25 .13v3.37h-8.35v20.43h-3.38v-20.43h-8.52v-3.37h20.25Z"/><path fill="#fff" d="M25.41 6.89h10.11c3.45 0 5.17 1.71 5.17 5.1v11.94h-3.4v-11.2c0-1.62-0.75-2.43-2.24-2.43h-9.69v13.59h-3.39v-23.79h3.42v6.81l.02-0.02Z"/><path fill="#fff" d="M59.97 20.5v3.4h-12.86c-3.37-0.03-5.07-1.69-5.1-5.01v-6.9c0-3.39 1.7-5.08 5.1-5.1h8.52c3.38 .03 5.07 1.44 5.1 4.25v5.31h-13.45v-3.47h10.03v-1.41c0-0.85-0.55-1.27-1.68-1.27h-7.63c-1.73 0-2.6 .81-2.6 2.43v5.26c0 1.68 .77 2.52 2.3 2.51h12.25h.02Z"/><path fill="#fff" d="M76.57 23.87h-3.39v-23.77h15.29c3.37 .03 5.08 1.92 5.1 5.65v1.86c-0.02 3.41-1.73 5.12-5.1 5.12h-10.02v-3.32h9.36c1.57 0 2.37-0.66 2.37-1.99v-1.76c0-1.44-0.75-2.17-2.24-2.17h-11.37v20.37v.01Z"/><path fill="#fff" d="M94.32 23.9v-11.97c0-3.33 1.71-5.01 5.1-5.02h6.88v3.36h-6.34c-1.47 0-2.22 .72-2.24 2.13v11.52h-3.4v-0.02Z"/><path fill="#fff" d="M124.95 20.5v3.4h-12.86c-3.37-0.03-5.07-1.69-5.09-5.01v-6.9c0-3.39 1.69-5.08 5.09-5.1h8.52c3.38 .03 5.07 1.44 5.11 4.25v5.31h-13.46v-3.47h10.04v-1.41c0-0.85-0.56-1.27-1.68-1.27h-7.64c-1.72 0-2.59 .81-2.59 2.43v5.26c0 1.68 .76 2.52 2.29 2.51h12.26h.01Z"/><path fill="#fff" d="M138 12.43c-0.02-1.41-0.75-2.13-2.18-2.15h-5.4v13.61h-3.4v-17h20.34c3.42 0 5.14 1.71 5.14 5.1v11.9h-3.43v-11.37c-0.03-1.49-0.78-2.22-2.28-2.24h-5.3v13.58h-3.51v-11.43h.02Z"/><path fill="#fff" d="M157.62 3.59h-3.5v-3.49h3.5v3.49Zm-3.45 3.17h3.43v17.13h-3.43v-17.13Z"/><path fill="#fff" d="M162.36 6.91v11.43c0 1.42 .75 2.14 2.2 2.16h9.18v-13.59h3.42v16.99h-13.1c-3.4 0-5.09-1.71-5.1-5.1v-11.89h3.4Z"/><path fill="#fff" d="M189.96 12.43c-0.03-1.41-0.75-2.13-2.18-2.15h-5.39v13.61h-3.41v-17h20.34c3.42 0 5.14 1.71 5.14 5.1v11.9h-3.43v-11.37c-0.03-1.49-0.78-2.22-2.28-2.24h-5.29v13.58h-3.52v-11.43h.02Z"/><path fill="#fff" d="M221.87 23.98h-3.41v-23.96h15.43c3.4 .03 5.12 1.93 5.14 5.7v1.87c-0.02 3.44-1.74 5.14-5.14 5.16h-10.12v-3.34h9.45c1.59 0 2.39-0.68 2.39-2.02v-1.77c0-1.45-0.75-2.19-2.25-2.19h-11.46v20.55h-0.03Z"/><path fill="#fff" d="M245.77 0h10.29c3.43 0 5.16 1.7 5.16 5.1v13.76c0 3.43-1.74 5.16-5.16 5.16h-10.29c-3.44 0-5.15-1.71-5.15-5.15v-13.73c0-3.43 1.71-5.14 5.15-5.14Zm-1.71 5.88v12.42c0 1.53 .76 2.28 2.26 2.28h9.2c1.5 0 2.25-0.75 2.25-2.25v-12.6c0-1.53-0.77-2.3-2.3-2.3h-9.12c-1.53 0-2.31 .81-2.31 2.45h.02Z"/><path fill="#fff" d="M269.03 12.78v-3.37h9.53c1.59 .06 2.38-0.65 2.38-2.15v-1.64c0-1.45-0.73-2.18-2.2-2.18h-11.52v20.54h-3.42v-23.96h15.42c3.4 .03 5.11 1.75 5.13 5.16v2.41c0 3.47-1.71 5.21-5.13 5.21h-5.19l10.77 11.2h-4.61l-11.16-11.22Z"/><path fill="#fff" d="M306.77 .04v3.39h-8.43v20.6h-3.41v-20.6h-8.59v-3.38h20.42h.01Z"/><path fill="#fff" d="M308.8 24.02v-3.44h14.56c1.58 0 2.36-0.8 2.36-2.36v-3.23c0-1.5-0.78-2.25-2.36-2.25h-9.66c-3.43 0-5.14-1.74-5.14-5.21v-2.38c.01-3.42 1.74-5.13 5.16-5.15h15.24v3.44h-14.73c-1.49 0-2.24 .72-2.24 2.14v1.58c0 1.5 .72 2.25 2.18 2.25h9.82c3.44 0 5.16 1.59 5.16 4.77v4.69c0 3.44-1.72 5.15-5.16 5.16h-15.21l.02-0.01Z"/></g><path style="animation: 3s linear infinite both a1_do;" transform="translate(62.31,42.5)" stroke-dashoffset="329.7" stroke-dasharray="329.7 329.7" stroke-linecap="square" stroke="#fff" opacity=".8" d="M0 0h329.69"/></svg>