<svg width="1248" height="166" viewBox="0 0 1248 166" fill="none" xmlns="http://www.w3.org/2000/svg">
<path d="M43.4234 57.1752H65.1689V35.4295H43.4234V57.1752ZM54.2622 21.7455H76.0078V0H54.2622V21.7455ZM21.6778 78.8529H43.4234V57.1074H21.6778V78.8529ZM43.4234 122.412H65.1689V100.666H43.4234V122.412ZM21.6778 144.022H43.4234V122.276H21.6778V144.022ZM21.6778 122.344H43.4234V100.598H21.6778V122.344ZM21.6778 165.835H43.4234V144.09H21.6778V165.835ZM0 57.1752H21.7455V35.4295H0V57.1752ZM65.1689 57.1752H86.9145V35.4295H65.1689V57.1752ZM65.1689 78.8529H86.9145V57.1074H65.1689V78.8529ZM65.1689 100.598H86.9145V78.8529H65.1689V100.598ZM65.1689 122.344H86.9145V100.598H65.1689V122.344ZM86.8467 122.344H108.592V100.598H86.8467V122.344ZM86.8467 144.022H108.592V122.276H86.8467V144.022ZM107.712 144.022H129.457V122.276H107.712V144.022ZM129.457 144.022H151.203V122.276H129.457V144.022ZM86.8467 57.1752H108.592V35.4295H86.8467V57.1752ZM109.067 78.8529H130.812V57.1074H109.067V78.8529ZM130.744 100.598H152.49V78.8529H130.744V100.598Z" fill="url(#paint0_linear_2233_8294)"/>
<path d="M261.833 44.9678V55.7425H235.16V120.965H224.385V55.7425H197.185V44.9678H261.833Z" fill="#021F59"/>
<path d="M278.307 66.5632H310.583C321.597 66.5632 327.104 72.0225 327.104 82.8451V120.964H316.234V85.1916C316.234 80.0197 313.839 77.4338 309.098 77.4338H278.163V120.82H267.34V44.8701H278.259V66.6112L278.307 66.5632Z" fill="#021F59"/>
<path d="M388.639 109.999V120.869H347.6C336.825 120.773 331.414 115.458 331.318 104.875V82.8464C331.318 72.0238 336.729 66.6123 347.6 66.5645H374.8C385.575 66.6602 390.986 71.1617 391.082 80.1167V97.069H348.126V86.0068H380.163V81.5055C380.163 78.7759 378.391 77.435 374.8 77.435H350.425C344.918 77.435 342.14 80.021 342.14 85.1928V102.001C342.14 107.365 344.583 110.046 349.467 109.999H388.592H388.639Z" fill="#021F59"/>
<path d="M441.651 120.772H430.828V44.8701H479.626C490.4 44.9659 495.86 50.9998 495.907 62.9239V68.8619C495.86 79.7324 490.4 85.1916 479.626 85.1916H447.637V74.6085H477.519C482.547 74.6085 485.085 72.5013 485.085 68.2393V62.6365C485.085 58.0393 482.69 55.6928 477.95 55.6928H441.651V120.724V120.772Z" fill="#021F59"/>
<path d="M498.301 120.87V82.6557C498.301 72.0246 503.76 66.6612 514.583 66.6133H536.563V77.3401H516.307C511.614 77.3401 509.22 79.6387 509.172 84.1402V120.918H498.301V120.87Z" fill="#021F59"/>
<path d="M596.088 109.999V120.869H555.048C544.273 120.773 538.862 115.458 538.766 104.875V82.8464C538.766 72.0238 544.178 66.6123 555.048 66.5645H582.248C593.023 66.6602 598.434 71.1617 598.53 80.1167V97.069H555.575V86.0068H587.612V81.5055C587.612 78.7759 585.84 77.435 582.248 77.435H557.873C552.366 77.435 549.589 80.021 549.589 85.1928V102.001C549.589 107.365 552.031 110.046 556.916 109.999H596.04H596.088Z" fill="#021F59"/>
<path d="M637.751 84.235C637.703 79.7336 635.357 77.435 630.807 77.3871H613.568V120.821H602.697V66.5645H667.633C678.551 66.5645 684.058 72.0238 684.058 82.8464V120.821H673.092V84.5223C672.996 79.7814 670.602 77.435 665.813 77.3871H648.909V120.725H637.703V84.235H637.751Z" fill="#021F59"/>
<path d="M700.389 56.028H689.231V44.8701H700.389V56.028ZM689.375 66.1322H700.341V120.82H689.375V66.1322Z" fill="#021F59"/>
<path d="M715.519 66.6133V103.104C715.519 107.653 717.914 109.952 722.559 109.999H751.866V66.6133H762.784V120.87H720.931C710.108 120.87 704.697 115.411 704.649 104.588V66.6133H715.519Z" fill="#021F59"/>
<path d="M803.634 84.235C803.538 79.7336 801.24 77.435 796.691 77.3871H779.451V120.821H768.581V66.5645H833.516C844.435 66.5645 849.942 72.0238 849.942 82.8464V120.821H838.975V84.5223C838.88 79.7814 836.485 77.435 831.696 77.3871H814.792V120.725H803.586V84.235H803.634Z" fill="#021F59"/>
<path d="M905.507 121.131H894.637V44.6064H943.865C954.736 44.7022 960.243 50.784 960.291 62.8038V68.7898C960.243 79.7561 954.736 85.2153 943.865 85.2632H911.589V74.5842H941.758C946.834 74.5842 949.372 72.4292 949.372 68.1672V62.5165C949.372 57.8714 946.978 55.525 942.189 55.525H905.603V121.131H905.507Z" fill="#021F59"/>
<path d="M981.793 44.5596H1014.64C1025.61 44.5596 1031.12 49.9708 1031.12 60.8413V104.754C1031.12 115.721 1025.56 121.228 1014.64 121.228H981.793C970.827 121.228 965.368 115.768 965.368 104.802V60.985C965.368 50.0187 970.827 44.5596 981.793 44.5596ZM976.334 63.3314V102.982C976.334 107.867 978.776 110.261 983.565 110.261H1012.92C1017.71 110.261 1020.1 107.867 1020.1 103.078V62.8527C1020.1 57.9681 1017.66 55.5259 1012.78 55.5259H983.661C978.776 55.5259 976.286 58.1117 976.286 63.3314H976.334Z" fill="#021F59"/>
<path d="M1056.07 85.3599V74.5851H1086.48C1091.55 74.7767 1094.09 72.526 1094.09 67.7372V62.5175C1094.09 57.8724 1091.74 55.5259 1087.05 55.5259H1050.27V121.132H1039.35V44.6074H1088.58C1099.45 44.7032 1104.91 50.2103 1104.96 61.0808V68.7908C1104.96 79.8528 1099.5 85.4078 1088.58 85.4078H1072.01L1106.4 121.18H1091.7L1056.07 85.3599Z" fill="#021F59"/>
<path d="M1176.55 44.7021V55.5248H1149.64V121.274H1138.77V55.5248H1111.33V44.7021H1176.5H1176.55Z" fill="#021F59"/>
<path d="M1183.02 121.228V110.261H1229.52C1234.54 110.261 1237.03 107.723 1237.03 102.743V92.3993C1237.03 87.6105 1234.54 85.2161 1229.52 85.2161H1198.68C1187.71 85.2161 1182.25 79.6612 1182.25 68.5991V60.985C1182.3 50.0666 1187.8 44.6075 1198.72 44.5596H1247.38V55.5259H1200.35C1195.61 55.5259 1193.22 57.8245 1193.22 62.3738V67.4019C1193.22 72.1907 1195.51 74.5851 1200.16 74.5851H1231.53C1242.49 74.5851 1248 79.6611 1248 89.8133V104.802C1248 115.768 1242.49 121.228 1231.53 121.276H1182.97L1183.02 121.228Z" fill="#021F59"/>
<defs>
<linearGradient id="paint0_linear_2233_8294" x1="0" y1="82.9176" x2="152.49" y2="82.9176" gradientUnits="userSpaceOnUse">
<stop stop-color="#00C5FF"/>
<stop offset="0.54" stop-color="#153BFF"/>
<stop offset="0.98" stop-color="#CAB7FC"/>
</linearGradient>
</defs>
</svg>
