<svg width="52" height="52" viewBox="0 0 52 52" fill="none" xmlns="http://www.w3.org/2000/svg">
<path d="M21.125 41.1666C21.125 40.8793 21.2391 40.6037 21.4423 40.4006C21.6455 40.1974 21.921 40.0833 22.2083 40.0833H29.7917C30.079 40.0833 30.3545 40.1974 30.5577 40.4006C30.7609 40.6037 30.875 40.8793 30.875 41.1666C30.875 41.4539 30.7609 41.7295 30.5577 41.9326C30.3545 42.1358 30.079 42.2499 29.7917 42.2499H22.2083C21.921 42.2499 21.6455 42.1358 21.4423 41.9326C21.2391 41.7295 21.125 41.4539 21.125 41.1666Z" fill="url(#paint0_linear_2308_8744)"/>
<path d="M21.9743 5.41675H31.4166C31.4599 5.41675 31.5033 5.41964 31.5466 5.42541C32.0233 5.42975 32.4523 5.4478 32.8336 5.47958C33.6244 5.54458 34.3178 5.68108 34.9591 6.00608C35.978 6.52585 36.8062 7.35484 37.3251 8.37425C37.6523 9.01558 37.7888 9.70891 37.8538 10.4976C37.9166 11.2667 37.9166 12.2136 37.9166 13.3879V38.6101C37.9166 39.7844 37.9166 40.7334 37.8538 41.4982C37.7888 42.2891 37.6523 42.9824 37.3251 43.6238C36.8059 44.6423 35.9777 45.4705 34.9591 45.9897C34.3178 46.3169 33.6244 46.4534 32.8358 46.5184C32.0666 46.5812 31.1198 46.5812 29.9454 46.5812H22.0566C20.8823 46.5812 19.9333 46.5812 19.1684 46.5184C18.3776 46.4534 17.6843 46.3169 17.0429 45.9897C16.0235 45.4709 15.1945 44.6427 14.6748 43.6238C14.3498 42.9824 14.2133 42.2891 14.1483 41.5004C14.0833 40.7334 14.0833 39.7844 14.0833 38.6101V13.3901C14.0833 12.2157 14.0833 11.2667 14.1461 10.5019C14.2111 9.71108 14.3476 9.01775 14.6726 8.37641C15.192 7.35668 16.021 6.52765 17.0408 6.00825C17.6821 5.68325 18.3754 5.54675 19.1641 5.48175C19.5454 5.44997 19.9751 5.43191 20.4533 5.42758L20.5833 5.41675H21.9743ZM19.8119 7.60942L19.3418 7.63975C18.6874 7.69175 18.3104 7.79141 18.0244 7.93658C17.4124 8.24826 16.9148 8.74585 16.6031 9.35791C16.4579 9.64391 16.3583 10.0209 16.3063 10.6752C16.2499 11.3447 16.2499 12.2027 16.2499 13.4334V38.5667C16.2499 39.7974 16.2499 40.6576 16.3063 41.3249C16.3583 41.9792 16.4579 42.3563 16.6031 42.6423C16.9148 43.2543 17.4124 43.7519 18.0244 44.0636C18.3104 44.2087 18.6874 44.3084 19.3418 44.3604C20.0113 44.4168 20.8693 44.4167 22.0999 44.4167H29.8999C31.1306 44.4167 31.9886 44.4168 32.6581 44.3604C33.3146 44.3084 33.6894 44.2087 33.9754 44.0636C34.5875 43.7519 35.0851 43.2543 35.3968 42.6423C35.5419 42.3563 35.6416 41.9792 35.6936 41.3249C35.7499 40.6576 35.7499 39.7974 35.7499 38.5667V13.4334C35.7499 12.2027 35.7499 11.3447 35.6936 10.6752C35.6416 10.0209 35.5419 9.64391 35.3968 9.35791C35.0851 8.74585 34.5875 8.24826 33.9754 7.93658C33.6894 7.79141 33.3146 7.69175 32.6581 7.63975L32.1879 7.60942L31.9929 8.19441L31.9496 8.32441C31.7676 8.87475 31.5921 9.40775 31.2454 9.82375C30.9426 10.1858 30.5537 10.4659 30.1144 10.6384C29.6118 10.8356 29.0506 10.8334 28.4721 10.8334H23.5278C22.9493 10.8334 22.3881 10.8356 21.8854 10.6384C21.4461 10.4659 21.0572 10.1858 20.7544 9.82375C20.4078 9.40775 20.2323 8.87475 20.0503 8.32658L20.0069 8.19658L19.8119 7.60942ZM22.0869 7.58341C22.3209 8.28758 22.3708 8.37858 22.4163 8.43275C22.4858 8.51634 22.5752 8.58115 22.6763 8.62125C22.7456 8.64942 22.8539 8.66675 23.6664 8.66675H28.3334C29.1459 8.66675 29.2543 8.64941 29.3214 8.62341C29.4227 8.5827 29.5121 8.51713 29.5814 8.43275C29.6291 8.37858 29.6768 8.28758 29.9129 7.58341H22.0869Z" fill="url(#paint1_linear_2308_8744)"/>
<defs>
<linearGradient id="paint0_linear_2308_8744" x1="21.125" y1="41.1662" x2="30.875" y2="41.1662" gradientUnits="userSpaceOnUse">
<stop stop-color="#00C5FF"/>
<stop offset="0.54" stop-color="#153BFF"/>
<stop offset="0.98" stop-color="#CAB7FC"/>
</linearGradient>
<linearGradient id="paint1_linear_2308_8744" x1="14.0833" y1="25.9908" x2="37.9166" y2="25.9908" gradientUnits="userSpaceOnUse">
<stop stop-color="#00C5FF"/>
<stop offset="0.54" stop-color="#153BFF"/>
<stop offset="0.98" stop-color="#CAB7FC"/>
</linearGradient>
</defs>
</svg>
