<svg width="52" height="52" viewBox="0 0 52 52" fill="none" xmlns="http://www.w3.org/2000/svg">
<path d="M13.0002 23.8333C13.0002 23.2586 13.2284 22.7075 13.6348 22.3012C14.0411 21.8949 14.5922 21.6666 15.1668 21.6666C15.7415 21.6666 16.2926 21.8949 16.6989 22.3012C17.1052 22.7075 17.3335 23.2586 17.3335 23.8333C17.3335 24.4079 17.1052 24.959 16.6989 25.3653C16.2926 25.7716 15.7415 25.9999 15.1668 25.9999C14.5922 25.9999 14.0411 25.7716 13.6348 25.3653C13.2284 24.959 13.0002 24.4079 13.0002 23.8333ZM15.1668 30.3333C14.5922 30.3333 14.0411 30.5615 13.6348 30.9679C13.2284 31.3742 13.0002 31.9253 13.0002 32.4999C13.0002 33.0746 13.2284 33.6257 13.6348 34.032C14.0411 34.4383 14.5922 34.6666 15.1668 34.6666C15.7415 34.6666 16.2926 34.4383 16.6989 34.032C17.1052 33.6257 17.3335 33.0746 17.3335 32.4999C17.3335 31.9253 17.1052 31.3742 16.6989 30.9679C16.2926 30.5615 15.7415 30.3333 15.1668 30.3333ZM21.6668 23.8333C21.6668 23.2586 21.8951 22.7075 22.3014 22.3012C22.7078 21.8949 23.2589 21.6666 23.8335 21.6666C24.4081 21.6666 24.9592 21.8949 25.3656 22.3012C25.7719 22.7075 26.0002 23.2586 26.0002 23.8333C26.0002 24.4079 25.7719 24.959 25.3656 25.3653C24.9592 25.7716 24.4081 25.9999 23.8335 25.9999C23.2589 25.9999 22.7078 25.7716 22.3014 25.3653C21.8951 24.959 21.6668 24.4079 21.6668 23.8333ZM23.8335 30.3333C23.2589 30.3333 22.7078 30.5615 22.3014 30.9679C21.8951 31.3742 21.6668 31.9253 21.6668 32.4999C21.6668 33.0746 21.8951 33.6257 22.3014 34.032C22.7078 34.4383 23.2589 34.6666 23.8335 34.6666C24.4081 34.6666 24.9592 34.4383 25.3656 34.032C25.7719 33.6257 26.0002 33.0746 26.0002 32.4999C26.0002 31.9253 25.7719 31.3742 25.3656 30.9679C24.9592 30.5615 24.4081 30.3333 23.8335 30.3333ZM30.3335 23.8333C30.3335 23.2586 30.5618 22.7075 30.9681 22.3012C31.3744 21.8949 31.9255 21.6666 32.5002 21.6666C33.0748 21.6666 33.6259 21.8949 34.0322 22.3012C34.4386 22.7075 34.6668 23.2586 34.6668 23.8333C34.6668 24.4079 34.4386 24.959 34.0322 25.3653C33.6259 25.7716 33.0748 25.9999 32.5002 25.9999C31.9255 25.9999 31.3744 25.7716 30.9681 25.3653C30.5618 24.959 30.3335 24.4079 30.3335 23.8333ZM4.3335 15.1666C4.3335 12.2934 5.47486 9.53791 7.50651 7.50626C9.53815 5.47462 12.2937 4.33325 15.1668 4.33325H36.8335C39.7067 4.33325 42.4622 5.47462 44.4938 7.50626C46.5255 9.53791 47.6668 12.2934 47.6668 15.1666V36.8332C47.6668 39.7064 46.5255 42.4619 44.4938 44.4936C42.4622 46.5252 39.7067 47.6666 36.8335 47.6666H15.1668C12.2937 47.6666 9.53815 46.5252 7.50651 44.4936C5.47486 42.4619 4.3335 39.7064 4.3335 36.8332V15.1666ZM15.1668 8.66658C13.8221 8.66588 12.5102 9.08227 11.412 9.85837C10.3139 10.6345 9.48341 11.7321 9.03516 12.9999H42.9652C42.5169 11.7321 41.6865 10.6345 40.5883 9.85837C39.4901 9.08227 38.1782 8.66588 36.8335 8.66658H15.1668ZM43.3335 17.3333H8.66683V36.8332C8.66683 38.5572 9.35165 40.2105 10.5706 41.4294C11.7896 42.6484 13.4429 43.3332 15.1668 43.3332H36.8335C38.5574 43.3332 40.2107 42.6484 41.4297 41.4294C42.6487 40.2105 43.3335 38.5572 43.3335 36.8332V17.3333Z" fill="url(#paint0_linear_2308_8775)"/>
<defs>
<linearGradient id="paint0_linear_2308_8775" x1="4.3335" y1="25.9913" x2="47.6668" y2="25.9913" gradientUnits="userSpaceOnUse">
<stop stop-color="#00C5FF"/>
<stop offset="0.54" stop-color="#153BFF"/>
<stop offset="0.98" stop-color="#CAB7FC"/>
</linearGradient>
</defs>
</svg>
