<svg width="49" height="48" viewBox="0 0 49 48" fill="none" xmlns="http://www.w3.org/2000/svg">
<path d="M24.2499 1.5C14.4249 1.5 6.0999 7.725 3.0249 16.5H45.4749C42.3999 7.725 34.0749 1.5 24.2499 1.5Z" fill="#ED4C5C"/>
<path d="M24.2499 46.5C34.0749 46.5 42.3999 40.275 45.4749 31.5H3.0249C6.0999 40.275 14.4249 46.5 24.2499 46.5Z" fill="#428BC1"/>
<path d="M3.025 16.5C2.2 18.825 1.75 21.375 1.75 24C1.75 26.625 2.2 29.175 3.025 31.5H45.475C46.3 29.175 46.75 26.625 46.75 24C46.75 21.375 46.3 18.825 45.475 16.5H3.025Z" fill="white"/>
</svg>
