<svg width="32" height="32" viewBox="0 0 32 32" fill="none" xmlns="http://www.w3.org/2000/svg">
<path d="M28.7613 18.9169C30.3736 11.9738 26.0521 5.03826 19.109 3.42597C12.1659 1.81368 5.23033 6.13517 3.61804 13.0783C2.00575 20.0214 6.32724 26.9569 13.2704 28.5692C20.2135 30.1815 27.149 25.86 28.7613 18.9169Z" fill="#627EEA"/>
<path d="M16.5894 6.31836V13.4732L22.6366 16.1752L16.5894 6.31836Z" fill="white" fill-opacity="0.602"/>
<path d="M16.5899 6.31836L10.542 16.1752L16.5899 13.4732V6.31836Z" fill="white"/>
<path d="M16.5894 20.8116V25.673L22.6404 17.3013L16.5894 20.8116Z" fill="white" fill-opacity="0.602"/>
<path d="M16.5899 25.6734V20.8112L10.542 17.3013L16.5899 25.6734Z" fill="white"/>
<path d="M16.5894 19.6861L22.6366 16.1747L16.5894 13.4741V19.6861Z" fill="white" fill-opacity="0.2"/>
<path d="M10.542 16.1752L16.5899 19.6866V13.4746L10.542 16.1752Z" fill="white" fill-opacity="0.602"/>
</svg>
