<svg width="52" height="52" viewBox="0 0 52 52" fill="none" xmlns="http://www.w3.org/2000/svg">
<path d="M11.9168 47.6666C9.82238 47.6666 8.03488 46.9263 6.55433 45.4458C5.07377 43.9652 4.3335 42.1777 4.3335 40.0832C4.3335 37.9888 5.07377 36.2013 6.55433 34.7207C8.03488 33.2402 9.82238 32.4999 11.9168 32.4999C12.5668 32.4999 13.1988 32.5808 13.8127 32.7426C14.4266 32.9044 15.0043 33.1304 15.546 33.4207L23.8335 25.1333V19.1749C22.2446 18.7055 20.9446 17.8121 19.9335 16.4948C18.9224 15.1774 18.4168 13.6514 18.4168 11.9166C18.4168 9.82214 19.1571 8.03464 20.6377 6.55409C22.1182 5.07353 23.9057 4.33325 26.0002 4.33325C28.0946 4.33325 29.8821 5.07353 31.3627 6.55409C32.8432 8.03464 33.5835 9.82214 33.5835 11.9166C33.5835 13.6499 33.0779 15.176 32.0668 16.4948C31.0557 17.8135 29.7557 18.7069 28.1668 19.1749V25.1333L36.5085 33.4207C37.0502 33.1319 37.6193 32.9065 38.2158 32.7447C38.8124 32.583 39.4349 32.5014 40.0835 32.4999C42.1779 32.4999 43.9654 33.2402 45.446 34.7207C46.9265 36.2013 47.6668 37.9888 47.6668 40.0832C47.6668 42.1777 46.9265 43.9652 45.446 45.4458C43.9654 46.9263 42.1779 47.6666 40.0835 47.6666C37.989 47.6666 36.2015 46.9263 34.721 45.4458C33.2404 43.9652 32.5002 42.1777 32.5002 40.0832C32.5002 39.4333 32.5811 38.8013 32.7428 38.1874C32.9046 37.5735 33.1307 36.9958 33.421 36.4541L26.0002 29.0332L18.5793 36.4541C18.8682 36.9958 19.0943 37.5735 19.2575 38.1874C19.4207 38.8013 19.5016 39.4333 19.5002 40.0832C19.5002 42.1777 18.7599 43.9652 17.2793 45.4458C15.7988 46.9263 14.0113 47.6666 11.9168 47.6666ZM40.0835 43.3332C40.9863 43.3332 41.754 43.0176 42.3867 42.3864C43.0193 41.7552 43.3349 40.9875 43.3335 40.0832C43.3321 39.179 43.0164 38.412 42.3867 37.7822C41.7569 37.1525 40.9892 36.8361 40.0835 36.8332C39.1778 36.8304 38.4108 37.1467 37.7825 37.7822C37.1542 38.4178 36.8378 39.1848 36.8335 40.0832C36.8292 40.9817 37.1455 41.7494 37.7825 42.3864C38.4195 43.0234 39.1865 43.339 40.0835 43.3332ZM26.0002 15.1666C26.9029 15.1666 27.6707 14.851 28.3033 14.2198C28.936 13.5885 29.2516 12.8208 29.2502 11.9166C29.2487 11.0124 28.9331 10.2454 28.3033 9.61559C27.6735 8.98581 26.9058 8.66947 26.0002 8.66658C25.0945 8.6637 24.3275 8.98003 23.6992 9.61559C23.0708 10.2511 22.7545 11.0181 22.7502 11.9166C22.7458 12.815 23.0622 13.5828 23.6992 14.2198C24.3362 14.8568 25.1032 15.1724 26.0002 15.1666ZM11.9168 43.3332C12.8196 43.3332 13.5873 43.0176 14.22 42.3864C14.8527 41.7552 15.1683 40.9875 15.1668 40.0832C15.1654 39.179 14.8498 38.412 14.22 37.7822C13.5902 37.1525 12.8225 36.8361 11.9168 36.8332C11.0112 36.8304 10.2442 37.1467 9.61583 37.7822C8.9875 38.4178 8.67116 39.1848 8.66683 40.0832C8.6625 40.9817 8.97883 41.7494 9.61583 42.3864C10.2528 43.0234 11.0198 43.339 11.9168 43.3332Z" fill="url(#paint0_linear_2308_8759)"/>
<defs>
<linearGradient id="paint0_linear_2308_8759" x1="4.3335" y1="25.9913" x2="47.6668" y2="25.9913" gradientUnits="userSpaceOnUse">
<stop stop-color="#00C5FF"/>
<stop offset="0.54" stop-color="#153BFF"/>
<stop offset="0.98" stop-color="#CAB7FC"/>
</linearGradient>
</defs>
</svg>
