<svg width="52" height="52" viewBox="0 0 52 52" fill="none" xmlns="http://www.w3.org/2000/svg">
<path d="M19.5 38.9998H10.8333C9.68406 38.9998 8.58186 38.5433 7.7692 37.7306C6.95655 36.918 6.5 35.8158 6.5 34.6665V12.9998C6.5 11.8506 6.95655 10.7484 7.7692 9.93571C8.58186 9.12305 9.68406 8.6665 10.8333 8.6665H36.8333C37.9826 8.6665 39.0848 9.12305 39.8975 9.93571C40.7101 10.7484 41.1667 11.8506 41.1667 12.9998V17.3332M8.66667 17.3332H43.3333M8.66667 28.1665H19.5" stroke="url(#paint0_linear_2308_8791)" stroke-width="2"/>
<path d="M25.0032 36.7726C24.645 36.1284 24.457 35.4036 24.457 34.6666C24.457 33.9296 24.645 33.2047 25.0032 32.5606L26.4679 29.9324L28.0105 27.3541C28.3891 26.7213 28.9229 26.1955 29.5614 25.8266C30.1998 25.4577 30.9219 25.2578 31.6592 25.2459L34.6665 25.1982L37.6739 25.2459C38.411 25.2576 39.1329 25.4572 39.7714 25.8257C40.4098 26.1942 40.9437 26.7195 41.3225 27.3519L42.8674 29.9324L44.3277 32.5606C44.6859 33.2047 44.8739 33.9296 44.8739 34.6666C44.8739 35.4036 44.6859 36.1284 44.3277 36.7726L42.8674 39.4007L41.3225 41.9791C40.944 42.6119 40.4102 43.1376 39.7717 43.5065C39.1332 43.8754 38.4112 44.0753 37.6739 44.0872L34.6665 44.1349L31.6592 44.0872C30.9221 44.0755 30.2002 43.876 29.5617 43.5075C28.9233 43.139 28.3894 42.6136 28.0105 41.9812L26.4657 39.4007L25.0032 36.7726Z" stroke="url(#paint1_linear_2308_8791)" stroke-width="2"/>
<path d="M34.6667 36.8333C35.8633 36.8333 36.8333 35.8633 36.8333 34.6667C36.8333 33.47 35.8633 32.5 34.6667 32.5C33.47 32.5 32.5 33.47 32.5 34.6667C32.5 35.8633 33.47 36.8333 34.6667 36.8333Z" fill="url(#paint2_linear_2308_8791)"/>
<defs>
<linearGradient id="paint0_linear_2308_8791" x1="6.5" y1="23.8271" x2="43.3333" y2="23.8271" gradientUnits="userSpaceOnUse">
<stop stop-color="#00C5FF"/>
<stop offset="0.54" stop-color="#153BFF"/>
<stop offset="0.98" stop-color="#CAB7FC"/>
</linearGradient>
<linearGradient id="paint1_linear_2308_8791" x1="24.457" y1="34.6628" x2="44.8739" y2="34.6628" gradientUnits="userSpaceOnUse">
<stop stop-color="#00C5FF"/>
<stop offset="0.54" stop-color="#153BFF"/>
<stop offset="0.98" stop-color="#CAB7FC"/>
</linearGradient>
<linearGradient id="paint2_linear_2308_8791" x1="32.5" y1="34.6658" x2="36.8333" y2="34.6658" gradientUnits="userSpaceOnUse">
<stop stop-color="#00C5FF"/>
<stop offset="0.54" stop-color="#153BFF"/>
<stop offset="0.98" stop-color="#CAB7FC"/>
</linearGradient>
</defs>
</svg>
