<svg width="48" height="48" viewBox="0 0 48 48" fill="none" xmlns="http://www.w3.org/2000/svg">
<path d="M24 46.5C36.45 46.5 46.5 36.45 46.5 24H1.5C1.5 36.45 11.55 46.5 24 46.5Z" fill="#F9F9F9"/>
<path d="M24 1.5C11.55 1.5 1.5 11.55 1.5 24H46.5C46.5 11.55 36.45 1.5 24 1.5Z" fill="#ED4C5C"/>
<path d="M15.9 13.125L15 12.375H16.125L16.5 11.25L16.875 12.375H18L17.1 13.125L17.4 14.25L16.5 13.575L15.6 14.25L15.9 13.125ZM21.9 13.125L21 12.375H22.125L22.5 11.25L22.875 12.375H24L23.1 13.125L23.4 14.25L22.5 13.575L21.6 14.25L21.9 13.125ZM16.65 16.875L15.75 16.125H16.875L17.25 15L17.625 16.125H18.75L17.85 16.875L18.15 18L17.25 17.325L16.35 18L16.65 16.875ZM21.15 16.875L20.25 16.125H21.375L21.75 15L22.125 16.125H23.25L22.35 16.875L22.65 18L21.75 17.325L20.85 18L21.15 16.875ZM18.9 10.875L18 10.125H19.125L19.5 9L19.875 10.125H21L20.1 10.875L20.4 12L19.5 11.325L18.6 12L18.9 10.875Z" fill="#F9F9F9"/>
<path d="M18.3 21C14.7 21 11.85 17.925 11.85 14.175C11.85 10.425 14.775 7.35 18.3 7.35C18.6 7.35 18.825 7.35 19.05 7.425C18.15 6.975 17.175 6.75 16.125 6.75C12.225 6.75 9 10.125 9 14.25C9 18.375 12.225 21.75 16.125 21.75C17.325 21.75 18.525 21.45 19.5 20.85C19.125 20.925 18.75 21 18.3 21Z" fill="#F9F9F9"/>
</svg>
