<svg width="32" height="32" viewBox="0 0 32 32" fill="none" xmlns="http://www.w3.org/2000/svg">
<path d="M16.1413 0.506836C24.6964 0.506836 31.6323 7.44265 31.6323 15.9978C31.6323 24.5529 24.696 31.4887 16.1413 31.4887C7.58662 31.4887 0.650391 24.5546 0.650391 15.9978C0.650391 7.44097 7.58535 0.506836 16.1413 0.506836Z" fill="#53AE94"/>
<path d="M18.053 13.9336V11.6289H23.3228V8.11768H8.97329V11.6289H14.2435V13.9315C9.96027 14.1283 6.73975 14.9765 6.73975 15.9925C6.73975 17.0085 9.96196 17.8571 14.2435 18.0548V25.4362H18.0543V18.054C22.33 17.8567 25.5438 17.0089 25.5438 15.9938C25.5438 14.9786 22.3295 14.1309 18.0543 13.9336M18.0543 17.4297V17.4275C17.947 17.4343 17.3942 17.4675 16.1645 17.4675C15.1813 17.4675 14.4892 17.4397 14.2456 17.4271V17.4301C10.4613 17.2626 7.63712 16.6034 7.63712 15.815C7.63712 15.0266 10.4622 14.3686 14.2456 14.2003V16.7733C14.4934 16.7902 15.2023 16.8322 16.1809 16.8322C17.3559 16.8322 17.9466 16.7834 18.0551 16.7733V14.2007C21.8318 14.369 24.6497 15.0287 24.6497 15.8141C24.6497 16.6 21.8306 17.2597 18.0551 17.428" fill="white"/>
</svg>
