<svg width="121" height="59" viewBox="0 0 121 59" fill="none" xmlns="http://www.w3.org/2000/svg">
<g clip-path="url(#clip0_2224_48)">
<path d="M33.0037 12.0039H45.0441V14.3582H40.4131V27.0714H37.6346V14.3582H33.0037V12.0039ZM44.3494 16.0062H46.6649V18.1251C46.6649 17.8896 46.8964 17.6542 47.128 17.1834C47.3595 16.7125 47.5911 16.7125 47.8226 16.4771C48.0542 16.2416 48.5173 16.0062 48.7488 16.0062C48.9803 15.7708 49.4434 15.7708 49.9065 15.7708C50.1381 15.7708 50.3696 15.7708 50.3696 15.7708H50.6012V18.1251C50.3696 18.1251 50.3696 18.1251 50.1381 18.1251C49.9065 18.1251 49.9065 18.1251 49.675 18.1251C49.2119 18.1251 48.9803 18.1251 48.5173 18.3605C48.0542 18.5959 47.8226 18.8314 47.5911 19.0668C47.3595 19.3022 47.128 19.7731 46.8964 20.2439C46.6649 20.7148 46.6649 21.1857 46.6649 21.8919V27.0714H44.3494V16.0062ZM61.4838 27.0714H59.1684V25.6588C58.9368 26.1297 58.4737 26.6005 57.7791 27.0714C57.316 27.3068 56.6214 27.5423 55.9267 27.5423C54.5375 27.5423 53.6113 27.3068 52.9166 26.3651C52.222 25.4234 51.9904 24.4817 51.9904 23.0691V16.2416H54.3059V22.8337C54.3059 23.7754 54.5375 24.4817 54.769 24.9525C55.2321 25.4234 55.6952 25.6588 56.3898 25.6588C56.8529 25.6588 57.316 25.6588 57.5476 25.4234C57.7791 25.188 58.2422 24.9525 58.2422 24.7171C58.4737 24.4817 58.7053 24.2462 58.7053 23.7754C58.7053 23.3045 58.9368 23.0691 58.9368 22.5982V16.2416H61.2523V27.0714H61.4838ZM65.4201 23.54C65.4201 24.2462 65.6517 24.7171 66.1148 24.9525C66.5778 25.188 67.0409 25.4234 67.7356 25.4234C67.9671 25.4234 68.1987 25.4234 68.4302 25.4234C68.6618 25.4234 68.8933 25.4234 69.1249 25.188C69.3564 25.188 69.588 24.9525 69.8195 24.7171C70.051 24.4817 70.051 24.2462 70.051 24.0108C70.051 23.7754 69.8195 23.54 69.8195 23.3045C69.588 23.0691 69.3564 23.0691 69.1249 22.8337C68.8933 22.8337 68.4302 22.5982 67.9671 22.5982C67.504 22.5982 67.0409 22.3628 66.8094 22.3628C66.3463 22.3628 65.8832 22.1274 65.6517 21.8919C65.4201 21.6565 64.957 21.6565 64.4939 21.4211C64.2624 21.1857 63.7993 20.9502 63.7993 20.4794C63.5677 20.0085 63.5678 19.5377 63.5678 19.0668C63.5678 18.3605 63.7993 17.8896 64.0308 17.6542C64.2624 17.4188 64.7255 16.9479 65.1886 16.7125C65.6517 16.4771 66.1148 16.2416 66.5779 16.2416C67.0409 16.2416 67.7356 16.0062 68.1987 16.0062C68.6618 16.0062 69.3564 16.0062 69.8195 16.2416C70.2826 16.2416 70.7457 16.4771 71.2088 16.7125C71.6719 16.9479 71.9034 17.4188 72.135 17.6542C72.3665 18.1251 72.598 18.5959 72.598 19.3022H70.051C70.051 18.8314 69.588 18.3605 69.3564 18.1251C68.6618 17.8896 68.1987 17.6542 67.7356 17.6542C67.504 17.6542 67.2725 17.6542 67.0409 17.6542C66.8094 17.6542 66.5779 17.6542 66.3463 17.8896C66.1148 17.8896 65.8832 18.1251 65.8832 18.1251C65.6517 18.3605 65.6517 18.3605 65.6517 18.5959C65.6517 18.8314 65.6517 19.0668 65.8832 19.3022C66.1148 19.5377 66.3463 19.5377 66.5779 19.7731C66.8094 19.7731 67.2725 20.0085 67.7356 20.0085C68.1987 20.0085 68.6618 20.2439 69.1249 20.2439C69.5879 20.2439 70.051 20.4794 70.2826 20.7148C70.7457 20.9502 70.9772 20.9502 71.4403 21.1857C71.9034 21.4211 72.135 21.6565 72.135 22.1274C72.3665 22.5982 72.3665 22.8337 72.3665 23.54C72.3665 24.2462 72.135 24.7171 71.9034 25.188C71.6719 25.6588 71.2088 25.8943 70.7457 26.3651C70.5141 26.836 70.051 27.0714 69.5879 27.0714C69.1249 27.0714 68.4302 27.3068 67.9671 27.3068C67.2725 27.3068 66.5778 27.3068 66.1148 27.0714C65.6517 26.836 64.957 26.6005 64.7255 26.3651C64.2624 26.1297 64.0308 25.6588 63.7993 25.188C63.3362 24.7171 63.1047 24.2462 63.1047 23.54H65.4201ZM73.2927 16.0062H75.1451V12.9456H77.4605V16.2416H79.5444V18.1251H77.4605V24.0108C77.4605 24.2462 77.4605 24.4817 77.4605 24.7171C77.4605 24.9525 77.4605 24.9525 77.6921 25.188C77.9236 25.4234 77.9236 25.4234 77.9236 25.4234C78.1552 25.4234 78.3867 25.4234 78.6182 25.4234C78.8498 25.4234 78.8498 25.4234 79.0813 25.4234C79.3129 25.4234 79.3129 25.4234 79.5444 25.4234V27.0714C79.3129 27.0714 79.0813 27.0714 78.8498 27.0714C78.6182 27.0714 78.3867 27.0714 78.1552 27.0714C77.4605 27.0714 76.9974 27.0714 76.7659 26.836C76.3028 26.836 76.0712 26.6005 75.8397 26.3651C75.6081 26.1297 75.3766 25.8942 75.3766 25.4234C75.3766 25.188 75.1451 24.7171 75.1451 24.2462V17.8896H73.2927V16.0062ZM81.1653 16.0062H83.4807V17.6542C83.7123 16.9479 84.1754 16.4771 84.87 16.2416C85.5646 16.0062 86.0277 15.7708 86.7224 15.7708C87.6485 15.7708 88.3432 16.0062 89.0378 16.2416C89.7325 16.4771 90.1956 16.9479 90.6586 17.4188C91.1217 17.8896 91.3533 18.5959 91.5848 19.3022C91.8164 20.0085 91.8164 20.7148 91.8164 21.6565C91.8164 22.3628 91.8164 23.0691 91.5848 23.7754C91.3533 24.4817 91.1217 24.9525 90.6586 25.6588C90.1956 26.1297 89.7325 26.6005 89.2694 26.836C88.5747 27.0714 88.1116 27.3068 87.1855 27.3068C86.9539 27.3068 86.4908 27.3068 86.2593 27.3068C86.0277 27.3068 85.5646 27.0714 85.3331 27.0714C85.1015 26.836 84.6384 26.836 84.4069 26.6005C84.1754 26.3651 83.9438 26.1297 83.7123 25.8942V31.3091H81.3968V16.0062H81.1653ZM89.5009 21.6565C89.5009 21.1857 89.5009 20.7148 89.2694 20.2439C89.0378 19.7731 89.0378 19.3022 88.8063 19.0668C88.5747 18.8314 88.3432 18.3605 87.8801 18.1251C87.417 17.8896 87.1855 17.8896 86.4908 17.8896C85.5646 17.8896 84.6384 18.1251 84.1754 18.8314C83.7123 19.5377 83.4807 20.4794 83.4807 21.6565C83.4807 22.1274 83.4807 22.8337 83.7123 23.0691C83.9438 23.54 83.9438 24.0108 84.4069 24.2462C84.6384 24.4817 84.87 24.9525 85.3331 24.9525C85.7962 25.188 86.0277 25.188 86.4908 25.188C86.9539 25.188 87.417 25.188 87.8801 24.9525C88.3432 24.7171 88.5747 24.4817 88.8063 24.0108C89.0378 23.54 89.2694 23.3045 89.2694 22.8337C89.2694 22.5982 89.5009 22.1274 89.5009 21.6565ZM93.6687 12.0039H95.9842V14.3582H93.6687V12.0039ZM93.6687 16.0062H95.9842V27.0714H93.6687V16.0062ZM98.0681 12.0039H100.384V27.0714H98.0681V12.0039ZM107.562 27.3068C106.635 27.3068 105.941 27.0714 105.246 26.836C104.551 26.6005 104.088 26.1297 103.625 25.6588C103.162 25.188 102.699 24.4817 102.467 23.7754C102.236 23.0691 102.004 22.3628 102.004 21.4211C102.004 20.4794 102.236 19.7731 102.467 19.0668C102.699 18.3605 103.162 17.6542 103.625 17.1834C104.088 16.7125 104.551 16.2416 105.246 16.0062C105.941 15.7708 106.635 15.5353 107.562 15.5353C108.488 15.5353 109.182 15.7708 109.877 16.0062C110.572 16.2416 111.035 16.7125 111.498 17.1834C111.961 17.6542 112.424 18.3605 112.656 19.0668C112.887 19.7731 113.119 20.4794 113.119 21.4211C113.119 22.3628 112.887 23.0691 112.656 23.7754C112.424 24.4817 111.961 25.188 111.498 25.6588C111.035 26.1297 110.572 26.6005 109.877 26.836C109.182 27.0714 108.488 27.3068 107.562 27.3068ZM107.562 25.4234C108.025 25.4234 108.488 25.4234 108.951 25.188C109.414 24.9525 109.645 24.7171 109.877 24.2462C110.109 23.7754 110.34 23.54 110.34 23.0691C110.34 22.5982 110.572 22.1274 110.572 21.6565C110.572 21.1857 110.572 20.7148 110.34 20.2439C110.34 19.7731 110.109 19.3022 109.877 19.0668C109.645 18.8314 109.414 18.3605 108.951 18.1251C108.488 17.8896 108.025 17.8896 107.562 17.8896C107.098 17.8896 106.635 17.8896 106.172 18.1251C105.709 18.3605 105.478 18.5959 105.246 19.0668C105.015 19.5377 104.783 19.7731 104.783 20.2439C104.783 20.7148 104.551 21.1857 104.551 21.6565C104.551 22.1274 104.551 22.5982 104.783 23.0691C104.783 23.54 105.015 24.0108 105.246 24.2462C105.478 24.7171 105.709 24.9525 106.172 25.188C106.635 25.188 107.098 25.4234 107.562 25.4234ZM113.813 16.0062H115.666V12.9456H117.981V16.2416H120.065V18.1251H117.981V24.0108C117.981 24.2462 117.981 24.4817 117.981 24.7171C117.981 24.9525 117.981 24.9525 118.213 25.188C118.444 25.4234 118.444 25.4234 118.444 25.4234C118.676 25.4234 118.907 25.4234 119.139 25.4234C119.37 25.4234 119.37 25.4234 119.602 25.4234C119.833 25.4234 119.833 25.4234 120.065 25.4234V27.0714C119.833 27.0714 119.602 27.0714 119.37 27.0714C119.139 27.0714 118.907 27.0714 118.676 27.0714C117.981 27.0714 117.518 27.0714 117.286 26.836C116.823 26.836 116.592 26.6005 116.36 26.3651C116.129 26.1297 115.897 25.8942 115.897 25.4234C115.897 25.188 115.666 24.7171 115.666 24.2462V17.8896H113.813V16.0062Z" fill="white"/>
<path d="M30.2252 12.0039H19.3425L16.1009 1.40955L12.6277 12.0039H1.97656L10.5438 18.3605L7.30212 28.9548L16.1009 22.3628L24.6681 28.9548L21.4264 18.3605L30.2252 12.0039Z" fill="#00B67A"/>
<path d="M22.121 20.7148L21.4264 18.3605L16.1008 22.3628L22.121 20.7148Z" fill="#005128"/>
<path d="M24.205 35.5469H1.97656V58.1481H24.205V35.5469Z" fill="#00B67A"/>
<path d="M48.0544 35.5469H25.8259V58.1481H48.0544V35.5469Z" fill="#00B67A"/>
<path d="M72.1349 35.5469H49.9065V58.1481H72.1349V35.5469Z" fill="#00B67A"/>
<path d="M95.9843 35.5469H73.7559V58.1481H95.9843V35.5469Z" fill="#00B67A"/>
<path d="M120.065 35.5469H97.8367V58.1481H120.065V35.5469Z" fill="#DCDCE6"/>
<path d="M97.8367 35.5469H108.951V57.9127H97.8367V35.5469Z" fill="#00B67A"/>
<path d="M12.8593 50.6143L16.3325 49.6726L17.7218 54.1458L12.8593 50.6143ZM20.7319 44.964H14.7117L12.8593 39.3137L11.0069 44.964H5.21826L10.0807 48.4955L8.22836 54.1458L13.0908 50.6143L16.1009 48.4955L20.7319 44.964Z" fill="white"/>
<path d="M36.9401 50.6143L40.4132 49.6726L41.8025 54.1458L36.9401 50.6143ZM44.5811 44.964H38.5609L36.7085 39.3137L34.8561 44.964H28.8359L33.6984 48.4955L31.846 54.1458L36.7085 50.6143L39.7186 48.4955L44.5811 44.964Z" fill="white"/>
<path d="M61.0209 50.6143L64.494 49.6726L65.8833 54.1458L61.0209 50.6143ZM68.6619 44.964H62.6417L60.7893 39.3137L58.9369 44.964H52.9167L57.7792 48.4955L56.1584 54.1458L61.0209 50.6143L64.031 48.4955L68.6619 44.964Z" fill="white"/>
<path d="M84.8701 50.6143L88.3433 49.6726L89.7326 54.1458L84.8701 50.6143ZM92.7427 44.964H86.7225L84.8701 39.3137L83.0178 44.964H76.9976L81.86 48.4955L80.0077 54.1458L84.8701 50.6143L87.8802 48.4955L92.7427 44.964Z" fill="white"/>
<path d="M108.951 50.6143L112.424 49.6726L113.813 54.1458L108.951 50.6143ZM116.592 44.964H110.572L108.719 39.3137L107.099 44.964H101.078L105.941 48.4955L104.088 54.1458L108.951 50.6143L111.961 48.4955L116.592 44.964Z" fill="white"/>
</g>
<defs>
<clipPath id="clip0_2224_48">
<rect width="120" height="58.4211" fill="white" transform="translate(0.905029 0.568237)"/>
</clipPath>
</defs>
</svg>
