<svg width="49" height="48" viewBox="0 0 49 48" fill="none" xmlns="http://www.w3.org/2000/svg">
<path d="M24.5 46.5C36.9264 46.5 47 36.4264 47 24C47 11.5736 36.9264 1.5 24.5 1.5C12.0736 1.5 2 11.5736 2 24C2 36.4264 12.0736 46.5 24.5 46.5Z" fill="#ED4C5C"/>
<path d="M31.475 29.25L31.55 25.2L27.5 24L31.55 22.8L31.475 18.75L33.95 21.975L38 20.775L35.525 24L38 27.225L33.95 26.025L31.475 29.25Z" fill="white"/>
<path d="M25.4 33C20.45 33 16.475 28.95 16.475 24C16.475 19.05 20.45 15 25.4 15C27.275 15 29 15.6 30.5 16.575C28.475 14.25 25.475 12.75 22.1 12.75C15.95 12.75 11 17.775 11 24C11 30.225 15.95 35.25 22.1 35.25C25.475 35.25 28.475 33.75 30.5 31.425C29.075 32.4 27.35 33 25.4 33Z" fill="white"/>
</svg>
