<svg width="45" height="44" viewBox="0 0 45 44" fill="none" xmlns="http://www.w3.org/2000/svg">
<path d="M15.8752 41.4562V31.9688L8.79395 37.1937C10.7877 39.05 13.1939 40.4937 15.8752 41.4562ZM29.6252 41.4562C32.3064 40.4937 34.7127 39.05 36.7064 37.1937L29.6252 31.9V41.4562ZM3.29395 28.875C3.5002 29.5625 3.7752 30.1813 4.11895 30.8688L6.8002 28.875H3.29395ZM38.7002 28.875L41.3814 30.8688C41.6564 30.25 41.9314 29.5625 42.2064 28.875H38.7002Z" fill="#2A5F9E"/>
<path d="M16.9063 26.125H2.5376C2.74385 27.0875 3.01885 27.9813 3.29385 28.875H6.8001L4.11885 30.8688C4.66885 32.0375 5.2876 33.0687 6.04385 34.1L13.1251 28.875H15.8751V30.25L7.83135 36.1625L8.79385 37.125L15.8751 31.9688V41.4562C16.7688 41.8 17.6626 42.0063 18.6251 42.2125V26.125H16.9063ZM42.9626 26.125H26.8751V42.2125C27.8376 42.0063 28.7313 41.7312 29.6251 41.4562V31.9688L36.7063 37.125C37.6688 36.2312 38.4938 35.2687 39.3188 34.2375L31.9626 28.875H36.6376L40.8313 31.9688C41.0376 31.625 41.2438 31.2125 41.3813 30.8688L38.7001 28.875H42.2063C42.4813 27.9813 42.7564 27.0875 42.9626 26.125Z" fill="white"/>
<path d="M6.04395 34.1C6.59395 34.8562 7.14395 35.5438 7.7627 36.2313L15.8752 30.3187V28.9437H13.1252L6.04395 34.1ZM32.0314 28.875L39.3877 34.2375C39.6627 33.8937 39.8689 33.55 40.1439 33.2062C40.2127 33.1375 40.2127 33.0687 40.2814 33.0687C40.4877 32.725 40.7627 32.3125 40.9689 31.9688L36.6377 28.875H32.0314Z" fill="#ED4C5C"/>
<path d="M29.6252 2.54395V12.0314L36.7064 6.80645C34.7127 4.9502 32.3064 3.50645 29.6252 2.54395ZM15.8752 2.54395C13.1939 3.50645 10.7877 4.9502 8.79395 6.80645L15.8752 12.1002V2.54395ZM42.2064 15.1252C42.0002 14.4377 41.7252 13.8189 41.3814 13.1314L38.7002 15.1252H42.2064ZM6.8002 15.1252L4.11895 13.1314C3.84395 13.8189 3.56895 14.4377 3.29395 15.1252H6.8002Z" fill="#2A5F9E"/>
<path d="M28.5938 17.8751H42.8938C42.6876 16.9126 42.4126 16.0188 42.1376 15.1251H38.6313L41.3126 13.1313C40.7626 11.9626 40.1438 10.9313 39.3876 9.9001L32.3751 15.1251H29.6251V13.7501L37.6688 7.8376L36.7063 6.8751L29.6251 12.0313V2.54385C28.7313 2.2001 27.8376 1.99385 26.8751 1.7876V17.8751H28.5938ZM2.5376 17.8751H18.6251V1.7876C17.6626 1.99385 16.7688 2.26885 15.8751 2.54385V12.0313L8.79385 6.8751C7.83135 7.76885 7.00635 8.73135 6.18135 9.7626L13.5376 15.1251H8.8626L4.66885 12.0313C4.4626 12.3751 4.25635 12.7876 4.11885 13.1313L6.8001 15.1251H3.29385C3.01885 16.0188 2.74385 16.9126 2.5376 17.8751Z" fill="white"/>
<path d="M39.4563 9.8998C38.9063 9.14355 38.3563 8.45605 37.7376 7.76855L29.6251 13.6811V15.0561H32.3751L39.4563 9.8998ZM13.4688 15.1248L6.18135 9.7623C5.90635 10.1061 5.7001 10.4498 5.4251 10.7936C5.35635 10.8623 5.35635 10.9311 5.2876 10.9311C5.08135 11.2748 4.80635 11.6873 4.6001 12.0311L8.79385 15.1248H13.4688Z" fill="#ED4C5C"/>
<path d="M42.9625 17.875H26.875V1.7875C25.5688 1.5125 24.1938 1.375 22.75 1.375C20.5844 1.375 19.9312 1.5125 18.625 1.7875V17.875H2.5375C2.2625 19.1812 2.125 20.5562 2.125 22C2.125 24.1656 2.2625 24.8188 2.5375 26.125H18.625V42.2125C19.9312 42.4875 21.3062 42.625 22.75 42.625C24.9156 42.625 25.5688 42.4875 26.875 42.2125V26.125H42.9625C43.2375 24.8188 43.375 23.4438 43.375 22C43.375 19.8344 43.2375 19.1812 42.9625 17.875Z" fill="#ED4C5C"/>
</svg>
